<svg width="499" height="458" viewBox="0 0 499 458" fill="none" xmlns="http://www.w3.org/2000/svg">
<path d="M286.933 7.46674C273.333 14.5334 270.4 16.9334 279.067 14.1334C283.867 12.5334 297.6 13.4667 347.333 18.9334C358.4 20.1334 368.533 21.2001 370 21.3334C371.467 21.6001 373.6 22.0001 374.667 22.4001C375.733 22.9334 382.933 24.8001 390.667 26.6667C398.4 28.6667 410.933 32.6667 418.667 35.6001C437.333 42.6667 457.2 48.5334 458.133 47.2001C458.533 46.5334 458.4 45.2001 457.867 44.2668C457.333 43.4667 457.467 43.2001 458 43.7334C458.667 44.2668 460 43.3334 460.8 41.7334C462.4 38.6667 462.533 38.8001 464.667 44.0001C465.867 46.9334 468.133 50.5334 469.467 52.1334C472 54.9334 472 54.9334 465.733 64.1334C453.2 82.5334 437.067 105.467 429.867 115.6C418.133 132.133 424 127.6 437.333 110C454.667 86.9334 470.4 63.7334 471.333 59.4667L472.133 55.8667L479.6 62.8001L487.067 69.7334L487.733 80.2668C488.133 88.8001 488 90.4001 486.533 88.9334C485.6 88.1334 484 87.3334 483.067 87.3334C480.933 87.3334 474.133 99.2001 471.2 107.6C470.133 111.2 468.533 114 467.867 114C467.067 114 466.8 114.533 467.2 115.2C467.6 115.733 466.4 122.133 464.667 129.333C462.8 136.4 460.667 147.733 459.733 154.533C458.933 161.6 457.333 167.733 456.133 169.2C454.8 170.933 454.667 171.467 455.733 170.8C457.333 169.867 457.467 171.6 456.667 180.133C455.333 193.467 454.667 195.333 447.6 203.067C438.4 213.067 422.667 232.267 412.4 246C400.933 261.2 377.067 288.533 368.267 296.267L362 301.867L361.2 296.933C360.4 292.267 360.267 292.267 360.4 298.267L360.533 304.4L366.267 299.733C369.467 297.067 378.133 288.133 385.6 279.733C392.933 271.467 399.333 264.933 399.733 265.2C400.533 266.133 384.133 294.267 371.467 313.333C365.6 322.133 359.467 331.733 357.733 334.667C355.333 338.667 354.8 339.2 355.333 336.667C361.467 308.133 359.6 284.667 350.933 282.4C343.733 280.667 333.733 293.733 324 317.867L317.733 333.333L309.6 338C298.4 344.533 297.333 346.133 308.4 340.133C313.333 337.333 317.333 335.733 317.333 336.4C317.333 337.067 316.533 338.4 315.467 339.2C314.4 340 313.333 342.4 312.933 344.4C312.667 346.4 311.067 354.267 309.333 362C307.733 369.733 306 382.267 305.467 389.867L304.667 403.867L295.6 410C285.2 417.067 264.133 427.867 253.467 431.467C245.2 434.4 226.267 437.867 216.667 438.267C211.067 438.533 206.8 437.2 189.333 429.733C170.533 421.6 167.333 420.667 154.667 419.333C138 417.6 110.533 413.2 104 411.2C97.7332 409.2 66.2666 394 67.0666 393.2C67.3332 392.8 75.1999 395.867 84.3999 400C103.467 408.533 111.2 410.4 140 413.333C154.933 414.933 165.867 415.333 179.333 414.667C191.467 414 199.867 414.267 203.333 415.2C207.733 416.4 212 416 226.4 413.333C244 410.133 244 410.133 252.933 412.667C257.867 414 262.533 414.8 263.333 414.267C264.133 413.733 263.2 414.667 261.333 416.4C259.467 418.133 255.467 420.933 252.4 422.8C249.2 424.667 246.667 426.533 246.667 426.8C246.667 428.667 266 415.733 270.4 410.933C273.333 407.867 273.467 407.333 271.467 403.867C270.4 401.733 265.867 395.6 261.467 390.267L253.467 380.533L262.667 366.267C267.733 358.4 276.133 346.133 281.467 338.933C286.667 331.733 290.533 325.467 290 324.933C288.4 323.333 256.667 335.067 232.933 346.133C209.333 357.067 199.867 360 182.533 361.067C174.133 361.6 173.467 361.867 160.267 371.733C151.733 378.133 144.8 382.267 141.733 382.8C134.533 384.133 105.067 378.933 92.5332 374.133C77.5999 368.267 68.1332 362.533 66.5332 358.267C65.7332 356.133 65.4666 351.333 65.9999 346.8C66.7999 338.8 68.1332 333.733 79.7332 291.6C83.4666 278.133 86.9332 265.867 87.3332 264.267C87.9999 261.867 87.8665 261.733 86.7999 263.467C85.9999 264.667 83.5999 272.4 81.3332 280.8C70.7999 319.467 68.7999 326 68.1332 326C67.7332 326 64.1332 324.133 60.2666 322C53.9999 318.267 53.3332 317.6 54.1332 314.267C63.9999 272.267 77.7332 232.533 88.6665 214C90.5332 210.667 91.1999 209.2 89.9999 210.667C80.3999 222.4 66.7999 258.267 56.1332 300C53.9999 308 51.7332 314.667 51.1999 314.667C50.5332 314.667 48.2666 311.867 45.9999 308.4C43.8666 304.933 41.4665 302.133 40.9332 302.133C39.3332 302 42.3999 307.067 47.3332 312.533L51.7332 317.467L49.8666 325.333C48.9332 329.733 48.1332 335.067 48.1332 337.333C48.2666 339.733 48.5332 340.267 48.7999 338.667C51.3332 325.867 52.3999 321.2 52.7999 320.4C53.1999 319.867 56.3999 321.333 60.1332 323.733C66.5332 327.733 66.7999 328.133 66.1332 332.667C65.7332 335.2 65.0666 342.133 64.5332 348C63.7332 357.467 63.9999 359.067 66.3999 362.133C73.0666 370.533 99.8665 380.667 124.267 384C143.067 386.533 143.467 386.4 161.6 372.8C172.133 364.933 175.067 363.333 179.467 363.2C182.267 363.2 189.733 362.4 195.867 361.467L207.067 359.867L203.733 362.533C201.867 364.133 200.133 366.267 199.733 367.467C199.067 369.2 203.867 368.667 229.733 363.867C246.667 360.667 262 357.733 263.733 357.333L266.933 356.533L264.4 360.8C263.067 363.067 258.533 368.933 254.267 373.733C245.333 384 248.933 382.533 203.333 394.133C174.533 401.6 169.6 402.533 154.667 403.067C135.467 403.733 105.333 400.533 94.1332 396.667C84.2665 393.333 59.3332 380.667 48.1332 373.467C37.5999 366.8 25.9999 355.467 16.5332 342.933C2.93321 324.8 1.59988 316.133 8.39988 289.2C17.3332 254.267 26.5332 236.267 43.0666 221.333C49.9999 214.933 85.0666 191.333 87.4666 191.333C87.9999 191.333 82.1332 197.867 74.5332 205.733C63.1999 217.6 59.4666 222.533 53.7332 233.467C47.5999 245.333 37.5999 273.333 39.0666 274.8C39.3332 275.067 40.9332 271.067 42.5332 265.733C47.3332 249.6 53.7332 235.2 60.5332 224.8C69.1999 211.867 86.3999 195.067 100.133 186C107.867 181.067 114 175.6 119.733 168.667L128.133 158.667L120.133 167.2C112 176 109.333 177.2 112.133 170.933C113.333 168.133 113.333 166.933 112 165.333C110.533 163.6 110.667 162.8 112.533 160.933C116.533 156.4 115.2 153.067 106.8 147.333C102.4 144.4 98.2665 142 97.5999 142C95.4666 142 89.3332 148.933 89.3332 151.467C89.3332 156 92.1332 160.133 98.3999 164.4C106.533 169.867 108.8 173.333 106.4 176.4C104.8 178.4 104.933 178.533 107.067 176.8C108.933 175.333 109.333 175.333 109.333 176.8C109.333 177.867 105.867 180.8 101.6 183.333C92.1332 189.2 90.7999 189.733 93.1999 186.8C94.2665 185.467 89.4666 188 82.5332 192.4C75.7332 196.8 65.1999 203.467 59.1999 207.333C31.0666 225.333 17.8665 245.333 7.19988 287.067C1.73321 308.4 1.33321 316 5.19988 327.733L8.13322 336.4L3.99988 344.267C-0.933452 353.467 -0.800119 358 5.33322 371.067C7.46655 375.6 8.93322 379.333 8.53322 379.333C8.26655 379.333 9.46655 382.267 11.3332 385.867C18.5332 400.267 40.6665 422 47.9999 422C49.9999 422 53.0666 423.067 54.7999 424.4C59.9999 428.4 75.1999 437.2 77.3332 437.6C78.3999 437.733 86.5332 440.267 95.3332 443.2C128.133 453.867 156.133 458 197.867 458C234.4 458.133 255.2 453.6 283.067 439.333C313.867 423.6 333.067 405.467 352.4 373.6C355.067 369.067 357.733 364.4 358.267 363.333C358.8 362.267 360.533 359.467 362.267 357.2C364 354.933 365.333 352.667 365.333 352.267C365.333 351.733 370.267 343.733 376.4 334.267C382.4 324.933 390.933 311.733 395.333 304.933C417.067 271.333 433.6 246.667 434.667 246.267C435.467 246 436 244.933 436 243.867C436 242.8 436.533 242 437.067 242C437.6 242 440.267 239.2 442.933 235.6C445.733 232.133 451.6 225.333 456.267 220.533C474 202.133 492 181.067 492 178.8C492 178.267 493.333 176.133 494.8 174C496.533 171.733 497.467 169.067 496.933 167.467C496.533 165.867 496.8 164.667 497.6 164.667C498.4 164.667 498.533 163.2 498 160.933C497.467 158.933 496.933 156.533 496.8 155.6C496.667 154.667 495.467 152.667 494.267 151.2C493.067 149.867 492 148 492 147.2C492 146.533 491.467 146.267 490.667 146.667C490 147.067 489.333 146.8 489.333 145.867C489.333 144.933 488.933 144.533 488.533 145.067C488 145.467 486.8 145.067 485.867 144C484.267 142.533 484.133 140 485.2 131.067C485.867 124.933 487.2 117.2 488 113.867C488.933 110.133 489.333 100.133 489.067 88.5334L488.667 69.2001L479.6 60.6667C473.733 55.2001 469.067 49.3334 466.533 44.4001C464.4 40.1334 462 36.9334 461.333 37.3334C460.667 37.7334 460.4 37.2001 460.8 36.1334C461.733 33.8667 450.4 28.1334 434 22.6667C422.933 19.0667 389.467 10.4001 381.333 9.20007C378.8 8.80008 371.6 7.7334 365.333 6.66675C349.2 4.00006 332.267 2.26675 315.333 1.20007L300.533 0.400085L286.933 7.46674ZM481.733 108.667C481.333 110.267 480.667 111.2 480.267 110.8C479.6 110 480.933 106 481.867 106C482.133 106 482.133 107.2 481.733 108.667ZM485.333 110.667C485.333 111.733 485.067 112.667 484.8 112.667C484.533 112.667 484 111.733 483.467 110.667C483.067 109.6 483.333 108.667 484 108.667C484.8 108.667 485.333 109.6 485.333 110.667ZM480 115.333C480 116.667 479.6 118.133 479.067 118.4C478.4 118.8 478 117.333 478 115.333C478 113.333 478.4 111.867 479.067 112.267C479.6 112.533 480 114 480 115.333ZM481.6 124.267C480.8 125.6 478.933 127.867 477.2 129.333C474.933 131.467 475.067 130.933 478.133 126.533C482 120.933 484 119.6 481.6 124.267ZM481.333 132.533C481.333 133.2 480.133 135.067 478.667 136.8L476 140L478.267 135.733C480.8 131.2 481.333 130.533 481.333 132.533ZM482.667 139.867C482.667 140.933 480.267 142.267 477.067 143.067C471.467 144.533 468 144.133 472.8 142.667C474.133 142.267 476.8 141.067 478.667 140C480.533 139.067 482.133 138.133 482.4 138.133C482.533 138 482.667 138.8 482.667 139.867ZM479.867 156.533C480 157.733 479.6 158 478.933 157.2C478.4 156.533 476.133 153.867 474 151.333L470 146.8L474.933 150.667C477.6 152.933 479.867 155.6 479.867 156.533ZM109.6 150.8C110 151.067 108.667 153.2 106.4 155.467C104.133 157.6 102.267 159.333 102 159.067C99.3332 155.2 97.3332 151.867 97.3332 151.2C97.3332 149.067 106 148.933 109.6 150.8ZM464.933 160.267C464.533 161.6 464.267 160.8 464.267 158.667C464.267 156.4 464.533 155.467 464.933 156.267C465.2 157.2 465.2 159.067 464.933 160.267ZM472 159.6C473.467 162 474.667 165.2 474.533 166.667C474.533 168.533 474.267 168.8 473.733 167.333C473.333 166.267 471.867 163.067 470.533 160.267C467.467 154.133 468.4 153.733 472 159.6ZM466.133 176.533C466.667 179.2 467.067 179.467 468.133 177.867C468.8 176.933 469.333 174.267 469.333 172.133C469.333 167.067 470.133 168 471.2 174.667C471.867 178.533 471.733 179.467 470.8 178C469.467 176.267 469.333 176.267 469.2 178C469.067 179.067 469.067 180.4 469.2 180.933C469.2 181.6 468.667 182 468 182C466 182 464 175.867 464.133 170.267C464.4 165.867 464.4 165.733 464.933 169.333C465.2 171.467 465.733 174.8 466.133 176.533ZM91.3332 190C90.9332 190.667 89.8665 191.333 89.1999 191.333C88.3999 191.333 88.2665 190.667 88.6665 190C89.0666 189.2 90.1332 188.667 90.7999 188.667C91.5999 188.667 91.7332 189.2 91.3332 190ZM349.333 299.333C350.8 300.8 352 302.667 352 303.467C352 304.267 350.8 303.6 349.467 301.867L346.933 298.667L345.2 304.4C343.2 311.2 341.867 310.933 343.733 304.133C346.133 295.867 341.733 298.4 336 308.667C331.467 316.933 330.533 316.8 334.8 308.4C337.6 303.067 343.333 296.667 345.467 296.667C346.133 296.667 347.867 297.867 349.333 299.333ZM352.8 309.2C351.733 313.733 343.733 325.467 339.6 328.667C334.533 332.667 335.2 331.2 342 323.2C345.333 319.333 349.067 313.867 350.4 311.067C353.067 305.333 354 304.533 352.8 309.2ZM339.6 319.867C337.733 324 335.867 327.333 335.467 327.333C335.2 327.333 336.533 323.733 338.4 319.333C340.267 315.067 342.133 311.733 342.4 312C342.667 312.267 341.467 315.867 339.6 319.867ZM330.8 320.8C330.133 322.533 329.467 323.333 329.467 322.4C329.333 320.4 330.8 316.4 331.467 317.067C331.867 317.333 331.467 319.067 330.8 320.8ZM354.267 326.267C354 328 353.733 326.667 353.733 323.333C353.733 320 354 318.667 354.267 320.267C354.533 322 354.533 324.667 354.267 326.267ZM351.467 327.6C351.067 329.333 350.133 335.333 349.2 340.933C348.4 346.667 347.2 351.333 346.8 351.333C346.4 351.333 342.933 350 339.067 348.4C334 346.133 332 344.533 331.6 342C331.067 339.333 331.2 339.067 332.4 340.8C333.333 341.867 335.867 343.467 338 344.267C340.267 345.067 342.933 346.133 344.133 346.533C345.867 347.333 346.533 346 347.867 339.867C348.667 335.6 349.333 331.067 349.333 329.733C349.333 327.2 349.067 327.2 344.4 330.133C341.733 331.867 340 332.4 340.533 331.6C341.333 330.267 350 325.067 351.733 324.667C351.867 324.667 351.733 326 351.467 327.6ZM287.333 328.8C286.8 329.6 282.4 332.8 277.467 335.867C272.667 339.067 267.867 342.533 266.8 343.867C264.133 346.933 259.333 349.6 260.933 347.067C266.533 337.867 271.867 332.533 278 330.133C285.6 327.067 288.533 326.667 287.333 328.8ZM328.667 328.667C329.067 329.333 328.8 330 328.133 330C327.333 330 326.667 329.333 326.667 328.667C326.667 327.867 326.933 327.333 327.2 327.333C327.6 327.333 328.267 327.867 328.667 328.667ZM327.333 334C327.733 334.667 327.467 335.333 326.8 335.333C326 335.333 325.333 334.667 325.333 334C325.333 333.2 325.6 332.667 325.867 332.667C326.267 332.667 326.933 333.2 327.333 334ZM264 334.667C264 336.667 220.4 357.467 218.933 356.133C218.533 355.733 222.667 353.333 228.133 350.8C233.6 348.267 243.733 343.467 250.667 340.133C264.267 333.6 264 333.733 264 334.667ZM274.8 342.133C264.933 351.6 261.733 353.2 244.267 356.8C219.467 362 213.333 363.067 213.333 362C213.333 360.4 216.667 359.333 232.667 356C259.067 350.4 261.867 349.333 272.267 341.467C277.6 337.333 282.267 334 282.667 334C283.067 334.133 279.467 337.733 274.8 342.133ZM352.933 338.267C352.533 339.333 352.133 338.933 352.133 337.467C352 336 352.4 335.2 352.8 335.733C353.2 336.133 353.333 337.333 352.933 338.267ZM323.733 348.8C322.933 353.467 322.4 360 322.533 363.2C322.533 367.6 322.267 368.8 321.067 367.6C319.733 366.267 320.933 353.467 323.6 342.267C325.067 336 325.2 340.533 323.733 348.8ZM332 347.867C332 348.267 331.467 348.933 330.667 349.333C330 349.733 329.333 349.467 329.333 348.8C329.333 348 330 347.333 330.667 347.333C331.467 347.333 332 347.6 332 347.867ZM11.9999 352C11.9999 356.133 14.7999 361.867 18.3999 365.067C20.3999 366.933 22.2666 367.333 25.0665 366.667C27.8666 366.133 29.4666 366.533 30.7999 368.133C34.1332 372.267 51.1999 385.2 57.7332 388.667C61.1999 390.533 63.9999 392.4 63.9999 392.933C63.9999 393.6 60.5332 394 56.2666 394C51.8666 394 43.8666 394.4 38.2666 394.8L28.1332 395.733L19.3332 386.933C5.99988 373.6 3.19988 364.667 8.13322 351.6C9.59988 347.6 11.9999 347.867 11.9999 352ZM326.667 354.8C326.667 355.867 326 356.4 325.333 356C324.533 355.467 324.267 354.533 324.667 353.867C325.867 352 326.667 352.4 326.667 354.8ZM334.8 362C337.867 367.867 339.467 369.6 340.267 368.4C341.067 367.333 341.2 367.867 340.533 370C339.6 373.6 338.933 374.8 338.267 373.867C337.333 372.267 329.333 355.2 329.333 354.667C329.333 352.667 330.933 354.933 334.8 362ZM327.6 365.6C327.2 366.933 326.933 365.867 326.933 363.333C326.933 360.8 327.2 359.733 327.6 360.933C327.867 362.267 327.867 364.4 327.6 365.6ZM330.267 384.667C330.8 384.667 332.267 383.733 333.6 382.4C337.467 378.933 336.4 381.467 331.867 386.667C327.2 392 326.4 392.133 323.467 389.2C322 387.733 321.333 384.933 321.467 379.6C321.6 375.467 322 373.733 322.267 376C323.6 387.067 324.133 388.8 326.4 388.4C328.267 388 328.667 386.4 328.533 378.667C328.4 370.533 328.533 370.267 328.933 376.933C329.2 381.2 329.867 384.667 330.267 384.667ZM337.467 378.4C336.133 379.6 336 379.467 336.8 377.6C337.2 376.267 338 375.6 338.4 376C338.8 376.4 338.4 377.467 337.467 378.4ZM83.0666 410.133C89.8665 413.2 99.4666 416.933 104.667 418.8C109.733 420.533 112.8 422 111.467 422C106.267 422 54.6665 399.6 54.6665 397.333C54.6665 396.933 58.2666 398.533 62.7999 400.667C67.1999 402.933 76.3999 407.2 83.0666 410.133ZM118.267 422.8C117.867 423.2 116.667 423.333 115.733 422.933C114.667 422.533 115.067 422.133 116.533 422.133C118 422 118.8 422.4 118.267 422.8ZM138.267 426.8C137.867 427.2 136.667 427.333 135.733 426.933C134.667 426.533 135.067 426.133 136.533 426.133C138 426 138.8 426.4 138.267 426.8Z" fill="url(#paint0_linear_54_75)"/>
<path d="M266 16.6666C263.733 17.6 264 17.8666 267.733 17.8666C270 18 272 17.3333 272 16.6666C272 15.0666 269.733 15.0666 266 16.6666Z" fill="url(#paint1_linear_54_75)"/>
<path d="M294.4 17.6C295.2 17.8667 296.8 17.8667 297.733 17.6C298.533 17.2 297.866 16.9334 296 16.9334C294.133 16.9334 293.466 17.2 294.4 17.6Z" fill="url(#paint2_linear_54_75)"/>
<path d="M243.2 20.4001C239.467 21.7334 233.333 24.8001 229.6 27.2001C220.8 32.8001 207.067 47.4667 202.267 56.4001C197.2 65.8667 198.667 65.2001 204 55.6001C206.4 51.4667 212.667 43.7334 218 38.5334C229.333 27.2001 240.8 21.0667 253.333 19.4667C261.067 18.4001 261.333 18.2667 256 18.2667C252.667 18.1334 246.933 19.2001 243.2 20.4001Z" fill="url(#paint3_linear_54_75)"/>
<path d="M287.6 23.8666C278.133 28 247.733 47.2 245.866 50.1333C245.466 50.8 252.8 46.1333 262.266 39.8666L279.333 28.4L294.666 29.2C303.066 29.7333 316 31.0666 323.333 32.2666C330.666 33.4666 337.6 34.4 338.666 34.4C342.533 34.2666 367.466 40.5333 378.666 44.4C394.266 49.8666 394.8 50.1333 393.733 51.7333C393.2 52.5333 393.6 52.8 394.8 52.4C410.133 46.2666 414.666 44.1333 414.666 42.8C414.666 34.4 347.333 19.3333 310 19.3333C299.333 19.3333 296.933 19.8666 287.6 23.8666Z" fill="url(#paint4_linear_54_75)"/>
<path d="M267.2 23.6001L264.667 26.6667L267.733 24.1334C269.333 22.6667 270.667 21.3334 270.667 21.0667C270.667 20.0001 269.6 20.8001 267.2 23.6001Z" fill="url(#paint5_linear_54_75)"/>
<path d="M317.867 46.1335C311.333 50.5335 304.133 56.0002 301.733 58.2668L297.6 62.2668L284.933 60.8002C277.867 60.0002 264.8 59.3335 255.6 59.3335C246.533 59.3335 238.667 58.9335 238.133 58.4002C237.733 57.8668 238.933 56.1335 240.933 54.4002L244.667 51.2002L239.733 54.2668C237.067 55.8668 235.2 57.7335 235.467 58.1335C235.733 58.6668 231.6 62.5335 226.267 66.8002C196.133 91.2002 166.4 119.6 140.667 148.8C113.867 179.067 109.333 184.8 109.333 187.867C109.333 198 126.4 219.334 143.467 230.667C165.067 245.067 204 251.734 244.267 247.867C266 245.867 290 242 300.267 238.8C307.6 236.667 308.933 237.467 310.133 244.934C311.067 250.4 312 249.6 284 268.667C260.933 284.534 229.467 308 220.533 316C217.733 318.667 226.4 312.534 240 302.267C253.6 292.134 274.533 277.067 286.667 268.8C308.667 253.734 316.667 247.334 313.6 247.334C312.8 247.334 312 246.267 312 244.934C312 243.6 311.2 241.467 310.133 240C308.667 237.734 308.933 232.267 312.933 201.334C315.333 181.467 317.733 164.4 318.133 163.334C318.533 162.267 319.067 158.667 319.333 155.334C320 146.934 325.867 127.467 331.333 115.867C340.933 95.0668 357.6 75.4668 376.8 62.6668C386.133 56.5335 388.667 54.4002 384 56.6668C378.933 59.2002 363.867 70.6668 359.6 75.0668L355.867 79.0668L340.667 73.7335C332.4 70.9335 319.333 67.2002 311.867 65.4668L298.267 62.4002L305.467 56.6668C309.467 53.4668 316.667 48.2668 321.733 44.9335C329.6 39.6002 331.6 38.0002 330.267 38.0002C330 38.0002 324.533 41.6002 317.867 46.1335ZM229.6 90.6668C261.2 92.1335 287.733 97.8668 320.133 110.133L330.267 114L325.867 125.734C323.467 132.133 320.4 142.667 319.2 149.333C317.867 155.867 316.667 161.467 316.533 161.734C316.533 161.867 308.933 161.067 299.867 159.867C278.4 157.2 245.867 150.934 226.8 146C218.4 143.734 211.333 142.267 211.067 142.534C210.667 142.8 214.667 144.133 219.867 145.467C231.2 148.4 232.267 150.267 227.467 158.4C225.6 161.6 224 164.934 224 165.867C224 166.8 222.267 170 220.133 173.067C218.133 176.133 216 179.6 215.6 180.667C215.067 182.267 214.8 182.267 214.8 180.4C214.667 179.2 215.333 176.534 216 174.667C217.067 172 216.933 171.2 215.733 171.6C213.867 172.267 209.333 178.267 197.467 195.6L189.467 207.334L195.067 208.8C200.667 210.134 200.667 210.267 200.267 215.467C199.867 218.8 199.067 220.667 197.867 220.667C196.267 220.667 196.4 221.334 198.267 224.267L200.533 227.734L195.733 226.8C191.6 226 190.8 226.267 190 228.667C189.6 230.134 188 231.334 186.667 231.334C185.333 231.334 184 232 183.733 232.934C183.333 233.867 181.067 234.534 178.533 234.534C173.733 234.534 160.133 225.867 152.933 218.267L149.2 214.4L151.467 206.534C156 190.8 172.667 153.6 181.733 138.667L185.067 133.467L176.8 130.267C172.4 128.4 168.133 126.4 167.333 125.734C166.533 124.934 172.533 118.133 184.267 106.667L202.667 88.8002L208.933 89.3335C212.533 89.6002 221.733 90.2668 229.6 90.6668ZM273.333 90.5335C273.333 90.8002 272.267 91.8668 271.067 92.8002C268.933 94.5335 268.8 94.4002 270.533 92.2668C272.267 90.1335 273.333 89.4668 273.333 90.5335ZM234.267 149.467C233.867 149.867 232.667 150 231.733 149.6C230.667 149.2 231.067 148.8 232.533 148.8C234 148.667 234.8 149.067 234.267 149.467ZM142.8 220.267C144.533 222.4 144.4 222.534 142.4 220.8C141.067 219.867 140 218.8 140 218.534C140 217.467 141.067 218.134 142.8 220.267Z" fill="url(#paint6_linear_54_75)"/>
<path d="M186.8 134.534C187.866 135.6 206.666 142 208.533 141.867C209.333 141.867 206 140.4 201.066 138.667C188.8 134.4 185.866 133.6 186.8 134.534Z" fill="url(#paint7_linear_54_75)"/>
<path d="M405.066 55.8667C375.6 68.6667 352.666 89.7334 339.6 116C333.733 127.867 331.333 135.067 328.533 149.2C326.667 158.8 325.867 160.667 323.467 161.067C320.8 161.6 320.8 161.6 323.733 161.867C326.133 162 326.533 162.667 326 164.933C325.733 166.667 323.867 180.933 322 196.667C320.133 212.4 318.267 227.333 317.733 229.733L316.933 234.267L322.4 231.467C325.466 229.867 328.667 228.667 329.6 228.8C330.533 228.8 333.6 231.467 336.267 234.533L341.2 240.133L329.2 250.4C316.133 261.867 293.067 286.667 283.333 299.6C276 309.467 278.667 306.8 301.333 281.467C309.733 272 322.267 259.067 329.067 252.533L341.6 240.933L345.066 244.533C347.066 246.533 347.733 246.933 346.533 245.333C342.533 240.267 342.667 239.733 350.267 233.867C360.933 225.733 360.666 225.733 374 222.533C385.867 219.6 385.867 219.6 378 220.133C353.733 222 342.933 223.733 343.6 225.6C344.267 227.2 345.867 227.467 351.2 226.8C358.8 225.867 359.333 224.933 346.933 234.933L341.6 239.333L336.667 233.867L331.733 228.4L338.8 224.4C342.8 222.267 348.4 219.467 351.333 218.133C358 215.067 369.733 201.467 384.133 180C394 165.2 408.8 138.4 407.733 137.333C407.466 137.067 404.4 142.4 400.933 149.067C391.6 167.2 391.867 167.067 377.6 170C370.933 171.333 363.6 173.333 361.333 174.533L357.2 176.533L359.733 172.267C361.066 169.867 364.533 164.133 367.333 159.467C373.2 149.733 389.333 115.6 389.333 113.067C389.333 110.8 390.666 110.933 394.666 113.467L398 115.6L394.666 112.533C392.8 110.933 391.466 109.333 391.466 108.8C391.6 108.4 392 106.133 392.533 104C393.066 101.467 392.933 100.667 392.266 101.867C391.333 103.067 390.666 101.067 390.133 95.8668C389.6 91.4668 388.266 83.8668 387.333 78.8001L385.333 69.6001L389.066 66.2668C392.133 63.3334 397.066 60.8001 414.666 52.9334C416.533 52.1334 417.466 51.4668 416.666 51.4668C416 51.3334 410.666 53.3334 405.066 55.8667ZM384.533 103.333L389.2 109.867L382.8 124.267C373.066 145.733 357.466 172.8 357.2 168.533C357.2 167.6 356.533 168.133 355.733 170C354.933 171.867 354.4 173.867 354.533 174.4C354.666 175.067 354.267 175.2 353.6 174.8C352.4 174 344.666 181.733 336.8 191.6C334.133 195.2 331.2 198 330.4 198C329.733 198 332.933 193.333 337.733 187.6C342.4 182 348.533 174.267 351.2 170.4L356.133 163.467L351.867 153.333C349.6 147.733 348 142.933 348.4 142.533C349.066 141.733 354.533 150.4 357.466 156.933C359.066 160.667 359.2 160.533 368.267 145.6C382.266 122.667 384.933 113.333 380.8 101.6C379.733 98.9334 379.2 96.6667 379.333 96.6667C379.6 96.6667 381.867 99.6001 384.533 103.333Z" fill="url(#paint8_linear_54_75)"/>
<path d="M194.133 72.6667C191.2 80.1334 191.6 81.3334 194.8 74.1334C196.267 70.9334 197.2 68.0001 196.8 67.7334C196.533 67.4667 195.333 69.6001 194.133 72.6667Z" fill="url(#paint9_linear_54_75)"/>
<path d="M389.333 69.2002C389.333 69.4669 390.267 70.1335 391.467 70.5335C392.533 70.9335 393.067 70.8002 392.667 70.0002C391.867 68.6669 389.333 68.1335 389.333 69.2002Z" fill="url(#paint10_linear_54_75)"/>
<path d="M209.867 76.9333L207.333 80L210.4 77.4667C213.2 75.0667 214 74 212.933 74C212.667 74 211.333 75.3333 209.867 76.9333Z" fill="url(#paint11_linear_54_75)"/>
<path d="M397.467 81.3333C397.467 84.5333 400.8 99.3333 401.867 100.4C402.267 100.8 402.667 99.3333 402.533 97.2C402.533 92.6666 397.467 77.3333 397.467 81.3333Z" fill="url(#paint12_linear_54_75)"/>
<path d="M188.133 88.8001C186.667 93.3334 185.6 97.3334 185.867 97.6001C186.133 97.8668 187.6 94.4001 189.2 89.8668C190.667 85.3334 191.733 81.3334 191.467 81.0668C191.2 80.8001 189.733 84.2668 188.133 88.8001Z" fill="url(#paint13_linear_54_75)"/>
<path d="M199.866 85.6002C198.133 87.7335 198.266 87.8669 200.4 86.1335C201.6 85.2002 202.666 84.1335 202.666 83.8669C202.666 82.8002 201.6 83.4669 199.866 85.6002Z" fill="url(#paint14_linear_54_75)"/>
<path d="M396.133 89.4667C396.133 90.9334 396.533 91.3334 396.933 90.2667C397.333 89.3334 397.2 88.1334 396.8 87.7334C396.4 87.2001 396 88.0001 396.133 89.4667Z" fill="url(#paint15_linear_54_75)"/>
<path d="M180.533 102.267L178 105.333L181.067 102.8C183.867 100.4 184.667 99.3335 183.6 99.3335C183.333 99.3335 182 100.667 180.533 102.267Z" fill="url(#paint16_linear_54_75)"/>
<path d="M454.133 119.6C450.933 122.934 450.533 123.467 453.333 121.067C455.866 118.667 459.466 116.267 461.333 115.467C463.733 114.534 464 114.134 462.266 114.134C460.933 114 457.333 116.534 454.133 119.6Z" fill="url(#paint17_linear_54_75)"/>
<path d="M405.333 121.867C409.333 125.733 413.867 129.467 415.333 130.133L418 131.467L415.333 129.333C413.867 128.133 412.8 126.533 413.067 125.867C413.2 125.067 412.8 124.8 412.267 125.2C411.6 125.6 409.867 124.667 408.533 123.2C407.067 121.6 404.267 119.067 402 117.6C399.867 116.133 401.333 118 405.333 121.867Z" fill="url(#paint18_linear_54_75)"/>
<path d="M154.666 128C151.466 131.333 149.066 134 149.466 134C149.866 134 152.8 131.333 156 128C159.2 124.667 161.6 122 161.2 122C160.8 122 157.866 124.667 154.666 128Z" fill="url(#paint19_linear_54_75)"/>
<path d="M437.866 140.533C435.066 145.067 429.466 153.467 425.466 159.067C400.933 193.6 393.333 204.667 393.333 205.467C393.333 205.867 394.266 206 395.333 205.467C396.533 205.067 397.333 205.467 397.333 206.667C397.333 208.933 395.2 209.333 394.133 207.467C393.6 206.8 386.8 206.267 378.933 206.4L364.666 206.667L365.066 210.8C365.333 214.133 364.8 215.2 362.4 216.133C360.266 216.8 363.333 217.333 372 217.6C388.4 218.267 395.333 215.867 398.266 208.933C399.333 206.267 402.8 200.533 406 196C409.066 191.6 413.866 183.733 416.666 178.667C422.4 168.133 432 154.133 432 156.267C432 159.6 423.6 185.6 420.666 191.467C416.533 199.467 416.533 199.867 421.066 202C429.2 205.733 431.733 205.867 434.266 202.933C436.4 200.4 436.4 200.267 434.4 201.867C431.2 204.267 431.333 203.467 435.333 196.4C438.933 190 442.8 172.933 445.333 153.2C446.533 143.333 446.533 140.267 445.066 136.533L443.2 132.133L437.866 140.533Z" fill="url(#paint20_linear_54_75)"/>
<path d="M142.666 141.333C139.466 144.667 137.066 147.333 137.466 147.333C137.866 147.333 140.8 144.667 144 141.333C147.2 138 149.6 135.333 149.2 135.333C148.8 135.333 145.866 138 142.666 141.333Z" fill="url(#paint21_linear_54_75)"/>
<path d="M431.333 139.333C432.667 140.8 434 142 434.4 142C434.8 142 434 140.8 432.667 139.333C431.333 137.867 430 136.667 429.6 136.667C429.2 136.667 430 137.867 431.333 139.333Z" fill="url(#paint22_linear_54_75)"/>
<path d="M131.867 153.6L127.333 158.667L132.4 154.133C136.933 149.733 138 148.667 136.933 148.667C136.667 148.667 134.4 150.933 131.867 153.6Z" fill="url(#paint23_linear_54_75)"/>
<path d="M450.933 176.267C447.466 181.333 446.4 183.333 447.066 183.333C447.333 183.333 449.2 180.933 451.2 178C455.066 172 454.933 170.533 450.933 176.267Z" fill="url(#paint24_linear_54_75)"/>
<path d="M440.8 192.267C438.133 196.533 437.2 198.4 438.933 196.4C442.4 192.4 447.2 184.667 446.267 184.667C446 184.667 443.467 188.133 440.8 192.267Z" fill="url(#paint25_linear_54_75)"/>
<path d="M425.467 211.6C423.6 214.667 423.6 214.667 426.533 212.133C429.467 209.467 429.867 208.667 428.267 208.667C427.733 208.667 426.533 210 425.467 211.6Z" fill="url(#paint26_linear_54_75)"/>
<path d="M414 226.8C409.2 233.067 405.866 237.867 406.533 237.333C408.266 236.267 424.4 215.333 423.466 215.333C423.2 215.333 418.933 220.533 414 226.8Z" fill="url(#paint27_linear_54_75)"/>
<path d="M116.4 226.267C108.667 234.933 98.5332 253.6 92.6666 270C89.0666 280.133 80.9332 312.667 81.7332 313.467C81.9999 313.733 83.8666 309.067 85.9999 302.933C92.2666 284.933 100.933 265.067 110.533 246.667C120.133 228.4 122.267 223.333 120.267 223.333C119.733 223.333 117.867 224.667 116.4 226.267Z" fill="url(#paint28_linear_54_75)"/>
<path d="M386.667 230C385.867 231.467 385.6 232.667 385.867 232.667C386.267 232.667 387.2 231.467 388 230C388.8 228.533 389.067 227.333 388.8 227.333C388.4 227.333 387.467 228.533 386.667 230Z" fill="url(#paint29_linear_54_75)"/>
<path d="M401.867 242.267L399.333 245.333L402.4 242.8C404 241.333 405.333 240 405.333 239.733C405.333 238.667 404.267 239.467 401.867 242.267Z" fill="url(#paint30_linear_54_75)"/>
<path d="M369.733 256.267C358.667 271.733 356.933 274.667 357.733 277.733C358.267 279.867 358.4 279.867 358.533 277.6C358.533 276.4 359.333 275.333 360 275.333C360.8 275.333 362 273.733 362.667 271.867C363.867 268.933 368.133 262 378.4 246.267C379.467 244.667 380 243.333 379.733 243.333C379.333 243.333 374.933 249.2 369.733 256.267Z" fill="url(#paint31_linear_54_75)"/>
<path d="M396.533 248.933L394 252L397.067 249.467C399.867 247.067 400.667 246 399.6 246C399.333 246 398 247.333 396.533 248.933Z" fill="url(#paint32_linear_54_75)"/>
<path d="M352.8 254.667C354.933 257.6 356.667 260.267 356.933 260.533C357.2 260.8 357.333 260.533 357.333 259.867C357.333 259.2 355.467 256.533 353.2 254L349.2 249.333L352.8 254.667Z" fill="url(#paint33_linear_54_75)"/>
<path d="M208.4 269.867C199.733 279.333 188.8 291.733 184.133 297.467C174.666 309.333 179.2 304.667 200.666 280.8C221.466 257.467 225.733 252.667 224.933 252.667C224.533 252.667 217.2 260.4 208.4 269.867Z" fill="url(#paint34_linear_54_75)"/>
<path d="M391.2 255.6L388.667 258.667L391.733 256.133C393.333 254.667 394.667 253.333 394.667 253.067C394.667 252 393.6 252.8 391.2 255.6Z" fill="url(#paint35_linear_54_75)"/>
<path d="M21.9998 262.267C18.6665 269.6 15.4665 281.067 14.1332 291.067C13.3332 296.533 13.4665 296.667 15.9998 295.333C17.9998 294.267 18.6665 294.267 18.6665 295.733C18.6665 300.933 35.8665 331.333 38.7998 331.333C39.7332 331.333 39.9998 324.933 39.7332 312.8C39.4665 302.533 38.9332 294.533 38.3998 294.8C37.9998 295.067 37.7332 291.067 37.8665 285.867C38.1332 278.933 37.8665 277.2 37.0665 279.467C36.3998 281.2 35.9998 284.534 36.2665 286.933C36.5332 289.2 36.2665 290.8 35.7332 290.533C33.9998 289.467 29.3332 272.4 28.3998 264.267C27.9998 260 27.0665 256.267 26.3998 255.867C25.8665 255.467 23.8665 258.267 21.9998 262.267ZM23.8665 270.8C23.0665 275.067 22.6665 280.933 23.0665 283.733C23.5998 287.2 23.0665 289.333 21.5998 290.8C19.3332 293.067 18.3998 292.267 16.7998 286C15.9998 283.333 16.1332 283.067 17.3332 284.667C18.5332 286.267 18.6665 285.867 18.3998 282.667C18.1332 278.933 23.7332 261.334 24.7998 262.4C25.0665 262.667 24.6665 266.4 23.8665 270.8ZM26.2665 270.267C25.8665 271.333 25.4665 270.933 25.4665 269.467C25.3332 268 25.7332 267.2 26.1332 267.734C26.5332 268.133 26.6665 269.333 26.2665 270.267ZM32.9332 291.6C32.5332 292.667 32.1332 292.267 32.1332 290.8C31.9998 289.333 32.3998 288.533 32.7998 289.067C33.1998 289.467 33.3332 290.667 32.9332 291.6ZM30.6665 309.333C34.5332 316.667 37.1998 321.467 36.7998 320C35.5998 315.333 33.3332 300.133 33.4665 296.667C33.5998 292.267 38.3998 317.333 38.5332 323.2L38.6665 327.867L35.1998 323.2C29.5998 315.6 18.3998 290.8 22.3998 294.667C23.1998 295.333 26.9332 302 30.6665 309.333Z" fill="url(#paint36_linear_54_75)"/>
<path d="M348.133 257.867C346.133 259.067 347.067 267.867 349.467 271.333C350.533 272.933 350.667 272.8 350.133 270.667C348.133 262.133 347.867 259.333 349.333 259.333C350.133 259.333 350.533 259.867 350.133 260.533C349.733 261.2 350.133 262 351.2 262.4C352.533 262.933 352.8 262.4 352.4 260.533C351.467 257.333 350.4 256.533 348.133 257.867Z" fill="url(#paint37_linear_54_75)"/>
<path d="M384.533 263.6L380.667 268L385.067 264.133C387.333 261.867 389.333 260 389.333 259.733C389.333 258.667 388.267 259.6 384.533 263.6Z" fill="url(#paint38_linear_54_75)"/>
<path d="M376.533 272.933L374 276L377.067 273.467C378.667 272 380 270.667 380 270.4C380 269.333 378.933 270.133 376.533 272.933Z" fill="url(#paint39_linear_54_75)"/>
<path d="M233.067 283.6C217.467 296 197.2 316.133 187.333 328.8C179.467 338.933 181.733 337.333 200.933 320C208.133 313.333 221.467 301.6 230.4 293.6C239.333 285.733 247.2 278.133 248 276.667C251.067 270.933 246.133 273.2 233.067 283.6Z" fill="url(#paint40_linear_54_75)"/>
<path d="M358.8 285.467C358.8 286.933 359.2 287.333 359.6 286.267C360 285.333 359.867 284.133 359.467 283.733C359.067 283.2 358.667 284 358.8 285.467Z" fill="url(#paint41_linear_54_75)"/>
<path d="M172.533 311.6L170 314.667L173.067 312.133C175.867 309.733 176.667 308.667 175.6 308.667C175.333 308.667 174 310 172.533 311.6Z" fill="url(#paint42_linear_54_75)"/>
<path d="M80.1331 317.467C80.1331 318.933 80.5331 319.333 80.9331 318.267C81.3331 317.333 81.1998 316.133 80.7998 315.733C80.3998 315.2 79.9998 316 80.1331 317.467Z" fill="url(#paint43_linear_54_75)"/>
<path d="M78.9333 326.267C78.6666 331.733 79.1999 332.8 82.5333 335.2C90.3999 340.8 136.533 355.6 145.2 355.2C146.4 355.2 139.6 353.2 130 350.667C109.6 345.467 91.0666 338.933 85.0666 334.8C81.4666 332.533 80.5333 330.8 79.8666 326L79.0666 320L78.9333 326.267Z" fill="url(#paint44_linear_54_75)"/>
<path d="M308.933 343.334C308.4 345.2 308 348.134 308 350C308 352.534 308.267 352.934 309.2 351.334C310 350.267 310.267 349.067 309.867 348.534C309.6 348 309.867 347.334 310.4 347.067C311.067 346.934 311.067 345.2 310.667 343.334L309.867 340L308.933 343.334Z" fill="url(#paint45_linear_54_75)"/>
<path d="M46.9331 345.333C46.9331 347.467 47.1998 348.267 47.5998 346.933C47.8664 345.733 47.8664 343.867 47.5998 342.933C47.1998 342.133 46.9331 343.067 46.9331 345.333Z" fill="url(#paint46_linear_54_75)"/>
<path d="M294.4 346.8C289.333 349.467 289.6 350.533 294.666 348C296.933 346.8 298.666 345.6 298.666 345.333C298.666 344.4 298.533 344.533 294.4 346.8Z" fill="url(#paint47_linear_54_75)"/>
<path d="M285.067 352.133C280 354.8 280.267 355.867 285.333 353.333C287.6 352.133 289.333 350.933 289.333 350.667C289.333 349.733 289.2 349.867 285.067 352.133Z" fill="url(#paint48_linear_54_75)"/>
<path d="M183.333 355.467C176.933 360.4 176.533 360.667 178.133 360.667C178.8 360.667 181.733 358.533 184.667 356C191.2 350.4 190.533 350.133 183.333 355.467Z" fill="url(#paint49_linear_54_75)"/>
<path d="M149.067 356.267C150 356.667 151.2 356.533 151.6 356.133C152.133 355.733 151.333 355.333 149.867 355.467C148.4 355.467 148 355.867 149.067 356.267Z" fill="url(#paint50_linear_54_75)"/>
<path d="M275.733 357.467C270.667 360.133 270.933 361.2 276 358.667C278.267 357.467 280 356.267 280 356C280 355.067 279.867 355.2 275.733 357.467Z" fill="url(#paint51_linear_54_75)"/>
<path d="M154.4 357.6C155.333 358 156.533 357.867 156.933 357.467C157.467 357.067 156.667 356.667 155.2 356.8C153.733 356.8 153.333 357.2 154.4 357.6Z" fill="url(#paint52_linear_54_75)"/>
<path d="M101.333 361.734C101.333 366.934 104.533 368.134 107.333 363.867C109.867 359.867 109.867 359.867 104.933 358.667C101.6 357.734 101.333 358 101.333 361.734Z" fill="url(#paint53_linear_54_75)"/>
<path d="M53.9998 372.133C55.4665 373.333 59.0665 375.333 61.9998 376.8C67.1998 379.333 66.9332 378.933 57.7332 372.933C52.6665 369.6 49.8665 369.067 53.9998 372.133Z" fill="url(#paint54_linear_54_75)"/>
<path d="M79.3332 385.467C93.7332 392.4 102.667 394.933 117.6 395.867L128.667 396.533L114.933 394.667C99.0665 392.533 95.3332 391.467 80.1332 384.533C65.0665 377.467 64.5332 378.133 79.3332 385.467Z" fill="url(#paint55_linear_54_75)"/>
<path d="M232 381.333C229.467 382.267 228.267 383.067 229.333 383.067C230.4 383.067 233.467 382.267 236 381.333C238.533 380.4 239.733 379.6 238.667 379.6C237.6 379.6 234.533 380.4 232 381.333Z" fill="url(#paint56_linear_54_75)"/>
<path d="M213.333 386C186 392.933 169.467 395.733 149.333 396.667L128.667 397.6L144.933 397.733C155.733 397.867 166 397.2 176.267 395.467C191.733 392.8 225.333 385.067 226.533 384C227.6 382.8 223.467 383.467 213.333 386Z" fill="url(#paint57_linear_54_75)"/>
<defs>
<linearGradient id="paint0_linear_54_75" x1="249.409" y1="458.003" x2="249.409" y2="0.400085" gradientUnits="userSpaceOnUse">
<stop stop-color="#90A7C4"/>
<stop offset="1" stop-color="#D4D0AF"/>
</linearGradient>
<linearGradient id="paint1_linear_54_75" x1="268.277" y1="17.8838" x2="268.277" y2="15.4666" gradientUnits="userSpaceOnUse">
<stop stop-color="#90A7C4"/>
<stop offset="1" stop-color="#D4D0AF"/>
</linearGradient>
<linearGradient id="paint2_linear_54_75" x1="296.023" y1="17.8" x2="296.023" y2="16.9334" gradientUnits="userSpaceOnUse">
<stop stop-color="#90A7C4"/>
<stop offset="1" stop-color="#D4D0AF"/>
</linearGradient>
<linearGradient id="paint3_linear_54_75" x1="229.385" y1="63.1606" x2="229.385" y2="18.2554" gradientUnits="userSpaceOnUse">
<stop stop-color="#90A7C4"/>
<stop offset="1" stop-color="#D4D0AF"/>
</linearGradient>
<linearGradient id="paint4_linear_54_75" x1="330.259" y1="52.5837" x2="330.259" y2="19.3333" gradientUnits="userSpaceOnUse">
<stop stop-color="#90A7C4"/>
<stop offset="1" stop-color="#D4D0AF"/>
</linearGradient>
<linearGradient id="paint5_linear_54_75" x1="267.667" y1="26.6667" x2="267.667" y2="20.6127" gradientUnits="userSpaceOnUse">
<stop stop-color="#90A7C4"/>
<stop offset="1" stop-color="#D4D0AF"/>
</linearGradient>
<linearGradient id="paint6_linear_54_75" x1="247.808" y1="316.624" x2="247.808" y2="38.0002" gradientUnits="userSpaceOnUse">
<stop stop-color="#90A7C4"/>
<stop offset="1" stop-color="#D4D0AF"/>
</linearGradient>
<linearGradient id="paint7_linear_54_75" x1="197.646" y1="141.869" x2="197.646" y2="134.185" gradientUnits="userSpaceOnUse">
<stop stop-color="#90A7C4"/>
<stop offset="1" stop-color="#D4D0AF"/>
</linearGradient>
<linearGradient id="paint8_linear_54_75" x1="348.323" y1="304.921" x2="348.323" y2="51.4605" gradientUnits="userSpaceOnUse">
<stop stop-color="#90A7C4"/>
<stop offset="1" stop-color="#D4D0AF"/>
</linearGradient>
<linearGradient id="paint9_linear_54_75" x1="194.521" y1="78.9453" x2="194.521" y2="67.7109" gradientUnits="userSpaceOnUse">
<stop stop-color="#90A7C4"/>
<stop offset="1" stop-color="#D4D0AF"/>
</linearGradient>
<linearGradient id="paint10_linear_54_75" x1="391.066" y1="70.752" x2="391.066" y2="68.6328" gradientUnits="userSpaceOnUse">
<stop stop-color="#90A7C4"/>
<stop offset="1" stop-color="#D4D0AF"/>
</linearGradient>
<linearGradient id="paint11_linear_54_75" x1="210.36" y1="80" x2="210.36" y2="74" gradientUnits="userSpaceOnUse">
<stop stop-color="#90A7C4"/>
<stop offset="1" stop-color="#D4D0AF"/>
</linearGradient>
<linearGradient id="paint12_linear_54_75" x1="400.013" y1="100.466" x2="400.013" y2="80.6744" gradientUnits="userSpaceOnUse">
<stop stop-color="#90A7C4"/>
<stop offset="1" stop-color="#D4D0AF"/>
</linearGradient>
<linearGradient id="paint13_linear_54_75" x1="188.667" y1="97.6145" x2="188.667" y2="81.0523" gradientUnits="userSpaceOnUse">
<stop stop-color="#90A7C4"/>
<stop offset="1" stop-color="#D4D0AF"/>
</linearGradient>
<linearGradient id="paint14_linear_54_75" x1="200.669" y1="87.3276" x2="200.669" y2="83.3665" gradientUnits="userSpaceOnUse">
<stop stop-color="#90A7C4"/>
<stop offset="1" stop-color="#D4D0AF"/>
</linearGradient>
<linearGradient id="paint15_linear_54_75" x1="396.641" y1="90.8694" x2="396.641" y2="87.5676" gradientUnits="userSpaceOnUse">
<stop stop-color="#90A7C4"/>
<stop offset="1" stop-color="#D4D0AF"/>
</linearGradient>
<linearGradient id="paint16_linear_54_75" x1="181.027" y1="105.333" x2="181.027" y2="99.3335" gradientUnits="userSpaceOnUse">
<stop stop-color="#90A7C4"/>
<stop offset="1" stop-color="#D4D0AF"/>
</linearGradient>
<linearGradient id="paint17_linear_54_75" x1="457.422" y1="122.549" x2="457.422" y2="114.128" gradientUnits="userSpaceOnUse">
<stop stop-color="#90A7C4"/>
<stop offset="1" stop-color="#D4D0AF"/>
</linearGradient>
<linearGradient id="paint18_linear_54_75" x1="409.511" y1="131.467" x2="409.511" y2="117.101" gradientUnits="userSpaceOnUse">
<stop stop-color="#90A7C4"/>
<stop offset="1" stop-color="#D4D0AF"/>
</linearGradient>
<linearGradient id="paint19_linear_54_75" x1="155.333" y1="134" x2="155.333" y2="122" gradientUnits="userSpaceOnUse">
<stop stop-color="#90A7C4"/>
<stop offset="1" stop-color="#D4D0AF"/>
</linearGradient>
<linearGradient id="paint20_linear_54_75" x1="403.975" y1="217.707" x2="403.975" y2="132.133" gradientUnits="userSpaceOnUse">
<stop stop-color="#90A7C4"/>
<stop offset="1" stop-color="#D4D0AF"/>
</linearGradient>
<linearGradient id="paint21_linear_54_75" x1="143.333" y1="147.333" x2="143.333" y2="135.333" gradientUnits="userSpaceOnUse">
<stop stop-color="#90A7C4"/>
<stop offset="1" stop-color="#D4D0AF"/>
</linearGradient>
<linearGradient id="paint22_linear_54_75" x1="432" y1="142" x2="432" y2="136.667" gradientUnits="userSpaceOnUse">
<stop stop-color="#90A7C4"/>
<stop offset="1" stop-color="#D4D0AF"/>
</linearGradient>
<linearGradient id="paint23_linear_54_75" x1="132.324" y1="158.667" x2="132.324" y2="148.667" gradientUnits="userSpaceOnUse">
<stop stop-color="#90A7C4"/>
<stop offset="1" stop-color="#D4D0AF"/>
</linearGradient>
<linearGradient id="paint24_linear_54_75" x1="450.449" y1="183.333" x2="450.449" y2="172.653" gradientUnits="userSpaceOnUse">
<stop stop-color="#90A7C4"/>
<stop offset="1" stop-color="#D4D0AF"/>
</linearGradient>
<linearGradient id="paint25_linear_54_75" x1="442.219" y1="197.203" x2="442.219" y2="184.667" gradientUnits="userSpaceOnUse">
<stop stop-color="#90A7C4"/>
<stop offset="1" stop-color="#D4D0AF"/>
</linearGradient>
<linearGradient id="paint26_linear_54_75" x1="426.686" y1="213.971" x2="426.686" y2="208.667" gradientUnits="userSpaceOnUse">
<stop stop-color="#90A7C4"/>
<stop offset="1" stop-color="#D4D0AF"/>
</linearGradient>
<linearGradient id="paint27_linear_54_75" x1="414.977" y1="237.374" x2="414.977" y2="215.333" gradientUnits="userSpaceOnUse">
<stop stop-color="#90A7C4"/>
<stop offset="1" stop-color="#D4D0AF"/>
</linearGradient>
<linearGradient id="paint28_linear_54_75" x1="101.315" y1="313.478" x2="101.315" y2="223.333" gradientUnits="userSpaceOnUse">
<stop stop-color="#90A7C4"/>
<stop offset="1" stop-color="#D4D0AF"/>
</linearGradient>
<linearGradient id="paint29_linear_54_75" x1="387.333" y1="232.667" x2="387.333" y2="227.333" gradientUnits="userSpaceOnUse">
<stop stop-color="#90A7C4"/>
<stop offset="1" stop-color="#D4D0AF"/>
</linearGradient>
<linearGradient id="paint30_linear_54_75" x1="402.333" y1="245.333" x2="402.333" y2="239.279" gradientUnits="userSpaceOnUse">
<stop stop-color="#90A7C4"/>
<stop offset="1" stop-color="#D4D0AF"/>
</linearGradient>
<linearGradient id="paint31_linear_54_75" x1="368.683" y1="279.317" x2="368.683" y2="243.333" gradientUnits="userSpaceOnUse">
<stop stop-color="#90A7C4"/>
<stop offset="1" stop-color="#D4D0AF"/>
</linearGradient>
<linearGradient id="paint32_linear_54_75" x1="397.027" y1="252" x2="397.027" y2="246" gradientUnits="userSpaceOnUse">
<stop stop-color="#90A7C4"/>
<stop offset="1" stop-color="#D4D0AF"/>
</linearGradient>
<linearGradient id="paint33_linear_54_75" x1="353.267" y1="260.635" x2="353.267" y2="249.333" gradientUnits="userSpaceOnUse">
<stop stop-color="#90A7C4"/>
<stop offset="1" stop-color="#D4D0AF"/>
</linearGradient>
<linearGradient id="paint34_linear_54_75" x1="202.231" y1="303.736" x2="202.231" y2="252.667" gradientUnits="userSpaceOnUse">
<stop stop-color="#90A7C4"/>
<stop offset="1" stop-color="#D4D0AF"/>
</linearGradient>
<linearGradient id="paint35_linear_54_75" x1="391.667" y1="258.667" x2="391.667" y2="252.613" gradientUnits="userSpaceOnUse">
<stop stop-color="#90A7C4"/>
<stop offset="1" stop-color="#D4D0AF"/>
</linearGradient>
<linearGradient id="paint36_linear_54_75" x1="26.7648" y1="331.333" x2="26.7648" y2="255.829" gradientUnits="userSpaceOnUse">
<stop stop-color="#90A7C4"/>
<stop offset="1" stop-color="#D4D0AF"/>
</linearGradient>
<linearGradient id="paint37_linear_54_75" x1="349.807" y1="272.416" x2="349.807" y2="257.25" gradientUnits="userSpaceOnUse">
<stop stop-color="#90A7C4"/>
<stop offset="1" stop-color="#D4D0AF"/>
</linearGradient>
<linearGradient id="paint38_linear_54_75" x1="385" y1="268" x2="385" y2="259.325" gradientUnits="userSpaceOnUse">
<stop stop-color="#90A7C4"/>
<stop offset="1" stop-color="#D4D0AF"/>
</linearGradient>
<linearGradient id="paint39_linear_54_75" x1="377" y1="276" x2="377" y2="269.946" gradientUnits="userSpaceOnUse">
<stop stop-color="#90A7C4"/>
<stop offset="1" stop-color="#D4D0AF"/>
</linearGradient>
<linearGradient id="paint40_linear_54_75" x1="215.985" y1="335.073" x2="215.985" y2="273.591" gradientUnits="userSpaceOnUse">
<stop stop-color="#90A7C4"/>
<stop offset="1" stop-color="#D4D0AF"/>
</linearGradient>
<linearGradient id="paint41_linear_54_75" x1="359.308" y1="286.869" x2="359.308" y2="283.568" gradientUnits="userSpaceOnUse">
<stop stop-color="#90A7C4"/>
<stop offset="1" stop-color="#D4D0AF"/>
</linearGradient>
<linearGradient id="paint42_linear_54_75" x1="173.027" y1="314.667" x2="173.027" y2="308.667" gradientUnits="userSpaceOnUse">
<stop stop-color="#90A7C4"/>
<stop offset="1" stop-color="#D4D0AF"/>
</linearGradient>
<linearGradient id="paint43_linear_54_75" x1="80.6408" y1="318.869" x2="80.6408" y2="315.568" gradientUnits="userSpaceOnUse">
<stop stop-color="#90A7C4"/>
<stop offset="1" stop-color="#D4D0AF"/>
</linearGradient>
<linearGradient id="paint44_linear_54_75" x1="112.105" y1="355.208" x2="112.105" y2="320" gradientUnits="userSpaceOnUse">
<stop stop-color="#90A7C4"/>
<stop offset="1" stop-color="#D4D0AF"/>
</linearGradient>
<linearGradient id="paint45_linear_54_75" x1="309.47" y1="352.285" x2="309.47" y2="340" gradientUnits="userSpaceOnUse">
<stop stop-color="#90A7C4"/>
<stop offset="1" stop-color="#D4D0AF"/>
</linearGradient>
<linearGradient id="paint46_linear_54_75" x1="47.3664" y1="347.585" x2="47.3664" y2="342.651" gradientUnits="userSpaceOnUse">
<stop stop-color="#90A7C4"/>
<stop offset="1" stop-color="#D4D0AF"/>
</linearGradient>
<linearGradient id="paint47_linear_54_75" x1="294.698" y1="349.44" x2="294.698" y2="344.789" gradientUnits="userSpaceOnUse">
<stop stop-color="#90A7C4"/>
<stop offset="1" stop-color="#D4D0AF"/>
</linearGradient>
<linearGradient id="paint48_linear_54_75" x1="285.365" y1="354.774" x2="285.365" y2="350.123" gradientUnits="userSpaceOnUse">
<stop stop-color="#90A7C4"/>
<stop offset="1" stop-color="#D4D0AF"/>
</linearGradient>
<linearGradient id="paint49_linear_54_75" x1="183.259" y1="360.667" x2="183.259" y2="351.628" gradientUnits="userSpaceOnUse">
<stop stop-color="#90A7C4"/>
<stop offset="1" stop-color="#D4D0AF"/>
</linearGradient>
<linearGradient id="paint50_linear_54_75" x1="150.115" y1="356.508" x2="150.115" y2="355.441" gradientUnits="userSpaceOnUse">
<stop stop-color="#90A7C4"/>
<stop offset="1" stop-color="#D4D0AF"/>
</linearGradient>
<linearGradient id="paint51_linear_54_75" x1="276.032" y1="360.107" x2="276.032" y2="355.456" gradientUnits="userSpaceOnUse">
<stop stop-color="#90A7C4"/>
<stop offset="1" stop-color="#D4D0AF"/>
</linearGradient>
<linearGradient id="paint52_linear_54_75" x1="155.448" y1="357.842" x2="155.448" y2="356.774" gradientUnits="userSpaceOnUse">
<stop stop-color="#90A7C4"/>
<stop offset="1" stop-color="#D4D0AF"/>
</linearGradient>
<linearGradient id="paint53_linear_54_75" x1="105.17" y1="366.459" x2="105.17" y2="358.212" gradientUnits="userSpaceOnUse">
<stop stop-color="#90A7C4"/>
<stop offset="1" stop-color="#D4D0AF"/>
</linearGradient>
<linearGradient id="paint54_linear_54_75" x1="58.7033" y1="378.272" x2="58.7033" y2="370.107" gradientUnits="userSpaceOnUse">
<stop stop-color="#90A7C4"/>
<stop offset="1" stop-color="#D4D0AF"/>
</linearGradient>
<linearGradient id="paint55_linear_54_75" x1="98.597" y1="396.533" x2="98.597" y2="379.583" gradientUnits="userSpaceOnUse">
<stop stop-color="#90A7C4"/>
<stop offset="1" stop-color="#D4D0AF"/>
</linearGradient>
<linearGradient id="paint56_linear_54_75" x1="234" y1="383.067" x2="234" y2="379.6" gradientUnits="userSpaceOnUse">
<stop stop-color="#90A7C4"/>
<stop offset="1" stop-color="#D4D0AF"/>
</linearGradient>
<linearGradient id="paint57_linear_54_75" x1="177.681" y1="397.75" x2="177.681" y2="383.422" gradientUnits="userSpaceOnUse">
<stop stop-color="#90A7C4"/>
<stop offset="1" stop-color="#D4D0AF"/>
</linearGradient>
</defs>
</svg>
