<svg width="42" height="36" viewBox="0 0 42 36" fill="none" xmlns="http://www.w3.org/2000/svg">
<g filter="url(#filter0_dd_66_385)">
<path d="M36 17.5293C36 22.2075 32.1624 26 27.4285 26H19.5M24.5715 9.54082C25.465 9.22867 26.4267 9.05882 27.4285 9.05882C28.4106 9.05882 29.3539 9.22202 30.2326 9.52247M30.2326 9.52247C29.7556 5.29057 26.1238 2 21.7143 2C16.9804 2 13.1428 5.79241 13.1428 10.4706C13.1428 11.5054 13.3306 12.4967 13.6742 13.4134M30.2326 9.52247C31.2571 9.8728 32.1935 10.4097 33 11.0921M13.6742 13.4134C13.2712 13.3351 12.8547 13.2941 12.4286 13.2941C8.87817 13.2941 6 16.1384 6 19.647C6 23.1557 8.87817 26 12.4286 26H13.5M13.6742 13.4134C14.5209 13.5776 15.3079 13.9061 16 14.3639" stroke="url(#paint0_linear_66_385)" stroke-width="2.25" stroke-linecap="round"/>
</g>
<defs>
<filter id="filter0_dd_66_385" x="0.875" y="0.875" width="40.25" height="34.25" filterUnits="userSpaceOnUse" color-interpolation-filters="sRGB">
<feFlood flood-opacity="0" result="BackgroundImageFix"/>
<feColorMatrix in="SourceAlpha" type="matrix" values="0 0 0 0 0 0 0 0 0 0 0 0 0 0 0 0 0 0 127 0" result="hardAlpha"/>
<feOffset dy="4"/>
<feGaussianBlur stdDeviation="2"/>
<feComposite in2="hardAlpha" operator="out"/>
<feColorMatrix type="matrix" values="0 0 0 0 0 0 0 0 0 0 0 0 0 0 0 0 0 0 0.25 0"/>
<feBlend mode="normal" in2="BackgroundImageFix" result="effect1_dropShadow_66_385"/>
<feColorMatrix in="SourceAlpha" type="matrix" values="0 0 0 0 0 0 0 0 0 0 0 0 0 0 0 0 0 0 127 0" result="hardAlpha"/>
<feOffset dy="4"/>
<feGaussianBlur stdDeviation="2"/>
<feComposite in2="hardAlpha" operator="out"/>
<feColorMatrix type="matrix" values="0 0 0 0 0 0 0 0 0 0 0 0 0 0 0 0 0 0 0.25 0"/>
<feBlend mode="normal" in2="effect1_dropShadow_66_385" result="effect2_dropShadow_66_385"/>
<feBlend mode="normal" in="SourceGraphic" in2="effect2_dropShadow_66_385" result="shape"/>
</filter>
<linearGradient id="paint0_linear_66_385" x1="21" y1="2" x2="21" y2="26" gradientUnits="userSpaceOnUse">
<stop stop-color="#D4D0AF"/>
<stop offset="1" stop-color="#90A7C4"/>
</linearGradient>
</defs>
</svg>
