<svg width="34" height="34" viewBox="0 0 34 34" fill="none" xmlns="http://www.w3.org/2000/svg">
<g filter="url(#filter0_dd_66_354)">
<path d="M25.5169 26H21.9306C21.4555 25.9986 21.0002 25.8092 20.6643 25.4732C20.3283 25.1373 20.1389 24.682 20.1375 24.2069V17.931C19.6624 17.9296 19.2071 17.7402 18.8712 17.4043C18.5352 17.0683 18.3458 16.613 18.3444 16.1379V10.7586C18.3379 10.4036 18.4031 10.0509 18.5359 9.72165C18.6688 9.39238 18.8667 9.09328 19.1177 8.84221C19.3688 8.59115 19.6679 8.39327 19.9972 8.26041C20.3264 8.12754 20.6791 8.06242 21.0341 8.06893H26.4134C26.7684 8.06242 27.1211 8.12754 27.4503 8.26041C27.7796 8.39327 28.0787 8.59115 28.3298 8.84221C28.5808 9.09328 28.7787 9.39238 28.9116 9.72165C29.0444 10.0509 29.1096 10.4036 29.1031 10.7586V16.1379C29.1017 16.613 28.9123 17.0683 28.5763 17.4043C28.2404 17.7402 27.7851 17.9296 27.31 17.931V24.2069C27.3086 24.682 27.1192 25.1373 26.7832 25.4732C26.4473 25.8092 25.992 25.9986 25.5169 26ZM21.0341 9.86203C20.9145 9.85481 20.7947 9.87305 20.6826 9.91556C20.5706 9.95806 20.4688 10.0239 20.3841 10.1086C20.2994 10.1933 20.2336 10.2951 20.1911 10.4071C20.1486 10.5192 20.1303 10.639 20.1375 10.7586V16.1379H21.9306V24.2069H25.5169V16.1379H27.31V10.7586C27.3172 10.639 27.2989 10.5192 27.2564 10.4071C27.2139 10.2951 27.1481 10.1933 27.0634 10.1086C26.9787 10.0239 26.8769 9.95806 26.7649 9.91556C26.6528 9.87305 26.533 9.85481 26.4134 9.86203H21.0341Z" fill="url(#paint0_linear_66_354)"/>
<path d="M23.7239 7.17241C23.0146 7.17241 22.3213 6.96209 21.7315 6.56803C21.1418 6.17397 20.6821 5.61388 20.4107 4.95859C20.1392 4.3033 20.0682 3.58223 20.2066 2.88657C20.345 2.19092 20.6865 1.55192 21.1881 1.05038C21.6896 0.548837 22.3286 0.207284 23.0243 0.0689095C23.7199 -0.069465 24.441 0.00155384 25.0963 0.272985C25.7516 0.544417 26.3117 1.00407 26.7057 1.59382C27.0998 2.18357 27.3101 2.87692 27.3101 3.58621C27.3073 4.53647 26.9286 5.44702 26.2567 6.11896C25.5847 6.7909 24.6742 7.16962 23.7239 7.17241ZM23.7239 1.7931C23.3693 1.7931 23.0226 1.89827 22.7277 2.0953C22.4328 2.29233 22.203 2.57237 22.0673 2.90002C21.9316 3.22766 21.8961 3.5882 21.9653 3.93602C22.0344 4.28385 22.2052 4.60335 22.456 4.85412C22.7068 5.10489 23.0263 5.27567 23.3741 5.34486C23.7219 5.41404 24.0824 5.37853 24.4101 5.24282C24.7377 5.1071 25.0178 4.87728 25.2148 4.5824C25.4118 4.28753 25.517 3.94085 25.517 3.58621C25.5156 3.11108 25.3262 2.6558 24.9903 2.31983C24.6543 1.98386 24.199 1.7945 23.7239 1.7931Z" fill="url(#paint1_linear_66_354)"/>
<path d="M11.1719 17.1993V9.86206H9.3788V17.1993C8.78061 17.4108 8.27644 17.827 7.95541 18.3743C7.63437 18.9215 7.51714 19.5647 7.62443 20.19C7.73173 20.8153 8.05663 21.3826 8.54173 21.7916C9.02682 22.2005 9.64088 22.4248 10.2754 22.4248C10.9098 22.4248 11.5239 22.2005 12.009 21.7916C12.4941 21.3826 12.819 20.8153 12.9263 20.19C13.0336 19.5647 12.9163 18.9215 12.5953 18.3743C12.2743 17.827 11.7701 17.4108 11.1719 17.1993Z" fill="url(#paint2_linear_66_354)"/>
<path d="M10.2758 26C9.04051 26.0012 7.83237 25.6375 6.80307 24.9544C5.77376 24.2714 4.96917 23.2995 4.49028 22.1608C4.0114 21.0221 3.87957 19.7673 4.11135 18.554C4.34312 17.3406 4.92817 16.2227 5.79305 15.3407V5.3793C5.79305 4.1904 6.26534 3.0502 7.10602 2.20951C7.9467 1.36883 9.08691 0.896545 10.2758 0.896545C11.4647 0.896545 12.6049 1.36883 13.4456 2.20951C14.2863 3.0502 14.7586 4.1904 14.7586 5.3793V15.3407C15.6235 16.2227 16.2085 17.3406 16.4403 18.554C16.6721 19.7673 16.5402 21.0221 16.0613 22.1608C15.5825 23.2995 14.7779 24.2714 13.7486 24.9544C12.7193 25.6375 11.5111 26.0012 10.2758 26ZM10.2758 2.68965C9.56271 2.69043 8.87904 2.97406 8.3748 3.4783C7.87057 3.98253 7.58694 4.6662 7.58616 5.3793V16.123L7.2885 16.3905C6.6115 16.9956 6.13421 17.792 5.91981 18.6743C5.70541 19.5567 5.76401 20.4833 6.08786 21.3316C6.4117 22.1799 6.98552 22.9098 7.73336 23.4248C8.4812 23.9398 9.36781 24.2156 10.2758 24.2156C11.1838 24.2156 12.0704 23.9398 12.8183 23.4248C13.5661 22.9098 14.1399 22.1799 14.4638 21.3316C14.7876 20.4833 14.8462 19.5567 14.6318 18.6743C14.4174 17.792 13.9401 16.9956 13.2631 16.3905L12.9655 16.123V5.3793C12.9647 4.6662 12.6811 3.98253 12.1768 3.4783C11.6726 2.97406 10.9889 2.69043 10.2758 2.68965Z" fill="url(#paint3_linear_66_354)"/>
</g>
<defs>
<filter id="filter0_dd_66_354" x="0" y="0" width="33.1035" height="34" filterUnits="userSpaceOnUse" color-interpolation-filters="sRGB">
<feFlood flood-opacity="0" result="BackgroundImageFix"/>
<feColorMatrix in="SourceAlpha" type="matrix" values="0 0 0 0 0 0 0 0 0 0 0 0 0 0 0 0 0 0 127 0" result="hardAlpha"/>
<feOffset dy="4"/>
<feGaussianBlur stdDeviation="2"/>
<feComposite in2="hardAlpha" operator="out"/>
<feColorMatrix type="matrix" values="0 0 0 0 0 0 0 0 0 0 0 0 0 0 0 0 0 0 0.25 0"/>
<feBlend mode="normal" in2="BackgroundImageFix" result="effect1_dropShadow_66_354"/>
<feColorMatrix in="SourceAlpha" type="matrix" values="0 0 0 0 0 0 0 0 0 0 0 0 0 0 0 0 0 0 127 0" result="hardAlpha"/>
<feOffset dy="4"/>
<feGaussianBlur stdDeviation="2"/>
<feComposite in2="hardAlpha" operator="out"/>
<feColorMatrix type="matrix" values="0 0 0 0 0 0 0 0 0 0 0 0 0 0 0 0 0 0 0.25 0"/>
<feBlend mode="normal" in2="effect1_dropShadow_66_354" result="effect2_dropShadow_66_354"/>
<feBlend mode="normal" in="SourceGraphic" in2="effect2_dropShadow_66_354" result="shape"/>
</filter>
<linearGradient id="paint0_linear_66_354" x1="23.7237" y1="8.06848" x2="23.7237" y2="26" gradientUnits="userSpaceOnUse">
<stop stop-color="#D4D0AF"/>
<stop offset="1" stop-color="#90A7C4"/>
</linearGradient>
<linearGradient id="paint1_linear_66_354" x1="23.7239" y1="0" x2="23.7239" y2="7.17241" gradientUnits="userSpaceOnUse">
<stop stop-color="#D4D0AF"/>
<stop offset="1" stop-color="#90A7C4"/>
</linearGradient>
<linearGradient id="paint2_linear_66_354" x1="10.2754" y1="9.86206" x2="10.2754" y2="22.4248" gradientUnits="userSpaceOnUse">
<stop stop-color="#D4D0AF"/>
<stop offset="1" stop-color="#90A7C4"/>
</linearGradient>
<linearGradient id="paint3_linear_66_354" x1="10.2758" y1="0.896545" x2="10.2758" y2="26" gradientUnits="userSpaceOnUse">
<stop stop-color="#D4D0AF"/>
<stop offset="1" stop-color="#90A7C4"/>
</linearGradient>
</defs>
</svg>
