<svg width="45" height="39" viewBox="0 0 45 39" fill="none" xmlns="http://www.w3.org/2000/svg">
<g filter="url(#filter0_dd_66_292)">
<path d="M27.569 1.22974C30.5934 0.57498 34.3455 0.607709 39.4515 1.88104C40.3314 2.10045 40.8662 2.9899 40.6463 3.86766C40.4264 4.74541 39.5349 5.27911 38.655 5.0597C33.9079 3.87588 30.6808 3.90881 28.2656 4.43169C25.8429 4.95615 24.1013 5.99637 22.2563 7.12121L22.1182 7.20547C20.3397 8.29049 18.3703 9.49199 15.7684 9.92455C13.0696 10.3732 9.88157 9.97654 5.60005 8.26786C4.75799 7.93182 4.34843 6.97841 4.68529 6.13836C5.02214 5.29831 5.97785 4.88973 6.8199 5.22579C10.7492 6.79387 13.3087 7.01178 15.2285 6.69263C17.1776 6.36863 18.6636 5.47167 20.5437 4.32547C22.3934 3.1977 24.552 1.88288 27.569 1.22974Z" fill="url(#paint0_linear_66_292)"/>
<path d="M39.4515 8.434C34.3455 7.16069 30.5934 7.12796 27.569 7.78271C24.552 8.43586 22.3934 9.75067 20.5437 10.8784C18.6636 12.0246 17.1776 12.9216 15.2285 13.2456C13.3087 13.5647 10.7492 13.3468 6.8199 11.7788C5.97785 11.4427 5.02214 11.8513 4.68529 12.6914C4.34843 13.5314 4.75799 14.4848 5.60005 14.8208C9.88157 16.5295 13.0696 16.9261 15.7684 16.4775C18.3703 16.0449 20.3397 14.8435 22.1182 13.7585L22.2563 13.6742C24.1013 12.5493 25.8429 11.5091 28.2656 10.9847C30.6808 10.4618 33.9079 10.4289 38.655 11.6127C39.5349 11.8321 40.4264 11.2984 40.6463 10.4206C40.8662 9.54287 40.3314 8.65342 39.4515 8.434Z" fill="url(#paint1_linear_66_292)"/>
<path fill-rule="evenodd" clip-rule="evenodd" d="M34.1265 12.3483C33.5563 12.3483 33.0812 12.6427 32.7497 13.0882C32.6332 13.2456 32.3641 13.6137 32.0066 14.1291C31.531 14.8144 30.8945 15.7667 30.2552 16.8297C29.619 17.8874 28.9626 19.0836 28.4604 20.2523C27.9796 21.3717 27.5562 22.587 27.5579 23.8192C27.559 24.165 27.6004 24.5125 27.6572 24.853C27.7521 25.4212 27.9449 26.2035 28.3469 27.0057C28.7522 27.8145 29.386 28.673 30.3673 29.3256C31.3591 29.9852 32.6075 30.3688 34.1265 30.3688C35.6455 30.3688 36.8939 29.9852 37.8855 29.3256C38.8669 28.673 39.5008 27.8145 39.9061 27.0059C40.3081 26.2035 40.501 25.4212 40.5959 24.8531C40.6529 24.5122 40.6948 24.1637 40.6953 23.8176C40.6958 22.5854 40.2736 21.3718 39.7926 20.2523C39.2906 19.0836 38.6342 17.8874 37.998 16.8297C37.3587 15.7667 36.722 14.8144 36.2464 14.1291C35.8889 13.6137 35.6196 13.2456 35.5033 13.0882C35.1718 12.6427 34.6965 12.3483 34.1265 12.3483ZM36.7739 21.5431C36.3523 20.5617 35.7771 19.5053 35.1816 18.5154C34.8195 17.9134 34.4564 17.3465 34.1265 16.8492C33.7966 17.3465 33.4335 17.9134 33.0714 18.5154C32.4761 19.5053 31.9008 20.5617 31.4793 21.5431L31.4553 21.5986C31.1651 22.2734 30.8222 23.0712 30.8426 23.8166C30.8623 24.4061 31.0211 25.0147 31.2847 25.5405C31.495 25.9606 31.7851 26.3308 32.1892 26.5996C32.5832 26.8615 33.1822 27.0923 34.1265 27.0923C35.0708 27.0923 35.6698 26.8615 36.0638 26.5996C36.4679 26.3308 36.758 25.9605 36.9685 25.5405C37.2321 25.0147 37.3909 24.4061 37.4106 23.8164C37.4311 23.0713 37.088 22.2736 36.7979 21.5989L36.7739 21.5431Z" fill="url(#paint2_linear_66_292)"/>
<path d="M26.1288 14.8185C27.3773 14.4143 28.3346 15.7138 27.7475 16.885C27.4793 17.4202 27.1777 17.8756 26.5779 18.0874C24.9733 18.6543 23.6441 19.4526 22.2563 20.2986L22.1182 20.3829C20.3397 21.4679 18.3703 22.6693 15.7684 23.1019C13.0696 23.5505 9.88158 23.1539 5.60004 21.4452C4.75799 21.1092 4.34844 20.1558 4.68529 19.3158C5.02215 18.4756 5.97785 18.0671 6.81992 18.4032C10.7492 19.9712 13.3087 20.1891 15.2285 19.87C17.1776 19.546 18.6636 18.6491 20.5437 17.5028C22.3304 16.4135 24.1691 15.4528 26.1288 14.8185Z" fill="url(#paint3_linear_66_292)"/>
</g>
<defs>
<filter id="filter0_dd_66_292" x="0.567383" y="0.809204" width="44.1284" height="37.5596" filterUnits="userSpaceOnUse" color-interpolation-filters="sRGB">
<feFlood flood-opacity="0" result="BackgroundImageFix"/>
<feColorMatrix in="SourceAlpha" type="matrix" values="0 0 0 0 0 0 0 0 0 0 0 0 0 0 0 0 0 0 127 0" result="hardAlpha"/>
<feOffset dy="4"/>
<feGaussianBlur stdDeviation="2"/>
<feComposite in2="hardAlpha" operator="out"/>
<feColorMatrix type="matrix" values="0 0 0 0 0 0 0 0 0 0 0 0 0 0 0 0 0 0 0.25 0"/>
<feBlend mode="normal" in2="BackgroundImageFix" result="effect1_dropShadow_66_292"/>
<feColorMatrix in="SourceAlpha" type="matrix" values="0 0 0 0 0 0 0 0 0 0 0 0 0 0 0 0 0 0 127 0" result="hardAlpha"/>
<feOffset dy="4"/>
<feGaussianBlur stdDeviation="2"/>
<feComposite in2="hardAlpha" operator="out"/>
<feColorMatrix type="matrix" values="0 0 0 0 0 0 0 0 0 0 0 0 0 0 0 0 0 0 0.25 0"/>
<feBlend mode="normal" in2="effect1_dropShadow_66_292" result="effect2_dropShadow_66_292"/>
<feBlend mode="normal" in="SourceGraphic" in2="effect2_dropShadow_66_292" result="shape"/>
</filter>
<linearGradient id="paint0_linear_66_292" x1="22.6316" y1="0.809204" x2="22.6316" y2="10.0952" gradientUnits="userSpaceOnUse">
<stop stop-color="#D4D0AF"/>
<stop offset="1" stop-color="#DBE5F6"/>
</linearGradient>
<linearGradient id="paint1_linear_66_292" x1="22.6316" y1="7.36218" x2="22.6316" y2="16.6482" gradientUnits="userSpaceOnUse">
<stop stop-color="#D4D0AF"/>
<stop offset="1" stop-color="#DBE5F6"/>
</linearGradient>
<linearGradient id="paint2_linear_66_292" x1="34.1266" y1="12.3483" x2="34.1266" y2="30.3688" gradientUnits="userSpaceOnUse">
<stop stop-color="#D4D0AF"/>
<stop offset="1" stop-color="#DBE5F6"/>
</linearGradient>
<linearGradient id="paint3_linear_66_292" x1="16.246" y1="14.7432" x2="16.246" y2="23.2726" gradientUnits="userSpaceOnUse">
<stop stop-color="#D4D0AF"/>
<stop offset="1" stop-color="#DBE5F6"/>
</linearGradient>
</defs>
</svg>
