<svg width="37" height="37" viewBox="0 0 37 37" fill="none" xmlns="http://www.w3.org/2000/svg">
<g filter="url(#filter0_dd_66_366)">
<path d="M18.4999 10.5454C17.7719 10.5454 17.1817 11.1356 17.1817 11.8636V18.8072C16.3937 19.2631 15.8635 20.115 15.8635 21.0909C15.8635 22.5469 17.0438 23.7272 18.4999 23.7272C19.956 23.7272 21.1363 22.5469 21.1363 21.0909C21.1363 20.115 20.6061 19.2631 19.8181 18.8072V11.8636C19.8181 11.1356 19.2279 10.5454 18.4999 10.5454Z" fill="url(#paint0_linear_66_366)"/>
<path d="M17.1818 6.59089C17.1818 5.86288 17.7719 5.27271 18.4999 5.27271C19.228 5.27271 19.8181 5.86288 19.8181 6.59089C19.8181 7.31889 19.228 7.90907 18.4999 7.90907C17.7719 7.90907 17.1818 7.31889 17.1818 6.59089Z" fill="url(#paint1_linear_66_366)"/>
<path d="M23.7729 7.90906C23.0449 7.90906 22.4547 8.49923 22.4547 9.22724C22.4547 9.95526 23.0449 10.5454 23.7729 10.5454C24.5009 10.5454 25.0911 9.95526 25.0911 9.22724C25.0911 8.49923 24.5009 7.90906 23.7729 7.90906Z" fill="url(#paint2_linear_66_366)"/>
<path d="M10.5911 15.8181C9.86313 15.8181 9.27295 15.228 9.27295 14.4999C9.27295 13.7719 9.86313 13.1818 10.5911 13.1818C11.3191 13.1818 11.9093 13.7719 11.9093 14.4999C11.9093 15.228 11.3191 15.8181 10.5911 15.8181Z" fill="url(#paint3_linear_66_366)"/>
<path d="M11.9089 9.22724C11.9089 9.95526 12.4991 10.5454 13.2271 10.5454C13.9551 10.5454 14.5453 9.95524 14.5453 9.22724C14.5453 8.49923 13.9551 7.90906 13.2271 7.90906C12.4991 7.90906 11.9089 8.49923 11.9089 9.22724Z" fill="url(#paint4_linear_66_366)"/>
<path d="M26.4092 15.8181C25.6812 15.8181 25.0911 15.228 25.0911 14.4999C25.0911 13.7719 25.6812 13.1818 26.4092 13.1818C27.1373 13.1818 27.7274 13.7719 27.7274 14.4999C27.7274 15.228 27.1373 15.8181 26.4092 15.8181Z" fill="url(#paint5_linear_66_366)"/>
<path fill-rule="evenodd" clip-rule="evenodd" d="M18.5 29C26.5081 29 33 22.5081 33 14.5C33 6.49187 26.5081 0 18.5 0C10.4919 0 4 6.49187 4 14.5C4 22.5081 10.4919 29 18.5 29ZM18.5 26.3547C11.9529 26.3547 6.64537 21.0471 6.64537 14.5C6.64537 7.95287 11.9529 2.64537 18.5 2.64537C25.0471 2.64537 30.3547 7.95287 30.3547 14.5C30.3547 21.0471 25.0471 26.3547 18.5 26.3547Z" fill="url(#paint6_linear_66_366)"/>
</g>
<defs>
<filter id="filter0_dd_66_366" x="0" y="0" width="37" height="37" filterUnits="userSpaceOnUse" color-interpolation-filters="sRGB">
<feFlood flood-opacity="0" result="BackgroundImageFix"/>
<feColorMatrix in="SourceAlpha" type="matrix" values="0 0 0 0 0 0 0 0 0 0 0 0 0 0 0 0 0 0 127 0" result="hardAlpha"/>
<feOffset dy="4"/>
<feGaussianBlur stdDeviation="2"/>
<feComposite in2="hardAlpha" operator="out"/>
<feColorMatrix type="matrix" values="0 0 0 0 0 0 0 0 0 0 0 0 0 0 0 0 0 0 0.25 0"/>
<feBlend mode="normal" in2="BackgroundImageFix" result="effect1_dropShadow_66_366"/>
<feColorMatrix in="SourceAlpha" type="matrix" values="0 0 0 0 0 0 0 0 0 0 0 0 0 0 0 0 0 0 127 0" result="hardAlpha"/>
<feOffset dy="4"/>
<feGaussianBlur stdDeviation="2"/>
<feComposite in2="hardAlpha" operator="out"/>
<feColorMatrix type="matrix" values="0 0 0 0 0 0 0 0 0 0 0 0 0 0 0 0 0 0 0.25 0"/>
<feBlend mode="normal" in2="effect1_dropShadow_66_366" result="effect2_dropShadow_66_366"/>
<feBlend mode="normal" in="SourceGraphic" in2="effect2_dropShadow_66_366" result="shape"/>
</filter>
<linearGradient id="paint0_linear_66_366" x1="18.4999" y1="10.5454" x2="18.4999" y2="23.7272" gradientUnits="userSpaceOnUse">
<stop stop-color="#D4D0AF"/>
<stop offset="1" stop-color="#DBE5F6"/>
</linearGradient>
<linearGradient id="paint1_linear_66_366" x1="18.4999" y1="5.27271" x2="18.4999" y2="7.90907" gradientUnits="userSpaceOnUse">
<stop stop-color="#D4D0AF"/>
<stop offset="1" stop-color="#DBE5F6"/>
</linearGradient>
<linearGradient id="paint2_linear_66_366" x1="23.7729" y1="7.90906" x2="23.7729" y2="10.5454" gradientUnits="userSpaceOnUse">
<stop stop-color="#D4D0AF"/>
<stop offset="1" stop-color="#DBE5F6"/>
</linearGradient>
<linearGradient id="paint3_linear_66_366" x1="10.5911" y1="13.1818" x2="10.5911" y2="15.8181" gradientUnits="userSpaceOnUse">
<stop stop-color="#D4D0AF"/>
<stop offset="1" stop-color="#DBE5F6"/>
</linearGradient>
<linearGradient id="paint4_linear_66_366" x1="13.2271" y1="7.90906" x2="13.2271" y2="10.5454" gradientUnits="userSpaceOnUse">
<stop stop-color="#D4D0AF"/>
<stop offset="1" stop-color="#DBE5F6"/>
</linearGradient>
<linearGradient id="paint5_linear_66_366" x1="26.4092" y1="13.1818" x2="26.4092" y2="15.8181" gradientUnits="userSpaceOnUse">
<stop stop-color="#D4D0AF"/>
<stop offset="1" stop-color="#DBE5F6"/>
</linearGradient>
<linearGradient id="paint6_linear_66_366" x1="18.5" y1="0" x2="18.5" y2="29" gradientUnits="userSpaceOnUse">
<stop stop-color="#D4D0AF"/>
<stop offset="1" stop-color="#DBE5F6"/>
</linearGradient>
</defs>
</svg>
