<svg width="41" height="41" viewBox="0 0 41 41" fill="none" xmlns="http://www.w3.org/2000/svg">
<g filter="url(#filter0_dd_66_382)">
<path d="M33.4617 2.35712H25.2112V4.71441H33.4617V2.35712Z" fill="url(#paint0_linear_66_382)"/>
<path d="M36.9977 9.42847H25.2112V11.7858H36.9977V9.42847Z" fill="url(#paint1_linear_66_382)"/>
<path d="M33.4617 16.4998H25.2112V18.8571H33.4617V16.4998Z" fill="url(#paint2_linear_66_382)"/>
<path d="M15.785 24.7498C15.785 25.6875 15.4125 26.5869 14.7494 27.25C14.0863 27.9132 13.1869 28.2857 12.2491 28.2857C11.3113 28.2857 10.4119 27.9132 9.74879 27.25C9.08567 26.5869 8.71313 25.6875 8.71313 24.7498H15.785Z" fill="url(#paint3_linear_66_382)"/>
<path d="M36.9975 23.5712H20.4024C20.1519 21.8426 19.36 20.2379 18.1405 18.9875V5.89279C18.1405 4.32993 17.5197 2.83107 16.4146 1.72596C15.3095 0.620846 13.8106 0 12.2478 0C10.6849 0 9.18603 0.620846 8.08092 1.72596C6.97581 2.83107 6.35496 4.32993 6.35496 5.89279V18.9875C5.44354 19.9178 4.76552 21.0509 4.37645 22.2938C3.98738 23.5367 3.89833 24.8541 4.1166 26.138C4.33487 27.422 4.85424 28.6359 5.63217 29.6805C6.4101 30.725 7.42444 31.5703 8.59208 32.1472C9.75972 32.7241 11.0474 33.0161 12.3497 32.9993C13.652 32.9825 14.9317 32.6575 16.0841 32.0507C17.2365 31.4439 18.2288 30.5728 18.9795 29.5086C19.7303 28.4444 20.2182 27.2174 20.4034 25.9283H36.9975V23.5712ZM12.2478 30.6425C11.0548 30.6441 9.88944 30.2831 8.90629 29.6073C7.92315 28.9316 7.16861 27.9729 6.74271 26.8585C6.31681 25.7442 6.23966 24.5266 6.52149 23.3674C6.80332 22.2082 7.43082 21.162 8.3208 20.3675L8.71208 20.0159V5.89279C8.71208 4.95507 9.08458 4.05576 9.74765 3.39269C10.4107 2.72962 11.31 2.35712 12.2478 2.35712C13.1855 2.35712 14.0848 2.72962 14.7479 3.39269C15.4109 4.05576 15.7834 4.95507 15.7834 5.89279V20.0159L16.1747 20.3675C17.0647 21.162 17.6922 22.2082 17.974 23.3674C18.2558 24.5266 18.1787 25.7442 17.7528 26.8585C17.3269 27.9729 16.5724 28.9316 15.5892 29.6073C14.6061 30.2831 13.4408 30.6441 12.2478 30.6425Z" fill="url(#paint4_linear_66_382)"/>
</g>
<defs>
<filter id="filter0_dd_66_382" x="0" y="0" width="40.9976" height="41" filterUnits="userSpaceOnUse" color-interpolation-filters="sRGB">
<feFlood flood-opacity="0" result="BackgroundImageFix"/>
<feColorMatrix in="SourceAlpha" type="matrix" values="0 0 0 0 0 0 0 0 0 0 0 0 0 0 0 0 0 0 127 0" result="hardAlpha"/>
<feOffset dy="4"/>
<feGaussianBlur stdDeviation="2"/>
<feComposite in2="hardAlpha" operator="out"/>
<feColorMatrix type="matrix" values="0 0 0 0 0 0 0 0 0 0 0 0 0 0 0 0 0 0 0.25 0"/>
<feBlend mode="normal" in2="BackgroundImageFix" result="effect1_dropShadow_66_382"/>
<feColorMatrix in="SourceAlpha" type="matrix" values="0 0 0 0 0 0 0 0 0 0 0 0 0 0 0 0 0 0 127 0" result="hardAlpha"/>
<feOffset dy="4"/>
<feGaussianBlur stdDeviation="2"/>
<feComposite in2="hardAlpha" operator="out"/>
<feColorMatrix type="matrix" values="0 0 0 0 0 0 0 0 0 0 0 0 0 0 0 0 0 0 0.25 0"/>
<feBlend mode="normal" in2="effect1_dropShadow_66_382" result="effect2_dropShadow_66_382"/>
<feBlend mode="normal" in="SourceGraphic" in2="effect2_dropShadow_66_382" result="shape"/>
</filter>
<linearGradient id="paint0_linear_66_382" x1="29.3365" y1="2.35712" x2="29.3365" y2="4.71441" gradientUnits="userSpaceOnUse">
<stop stop-color="#D4D0AF"/>
<stop offset="1" stop-color="#90A7C4"/>
</linearGradient>
<linearGradient id="paint1_linear_66_382" x1="31.1044" y1="9.42847" x2="31.1044" y2="11.7858" gradientUnits="userSpaceOnUse">
<stop stop-color="#D4D0AF"/>
<stop offset="1" stop-color="#90A7C4"/>
</linearGradient>
<linearGradient id="paint2_linear_66_382" x1="29.3365" y1="16.4998" x2="29.3365" y2="18.8571" gradientUnits="userSpaceOnUse">
<stop stop-color="#D4D0AF"/>
<stop offset="1" stop-color="#90A7C4"/>
</linearGradient>
<linearGradient id="paint3_linear_66_382" x1="12.2491" y1="24.7498" x2="12.2491" y2="28.2857" gradientUnits="userSpaceOnUse">
<stop stop-color="#D4D0AF"/>
<stop offset="1" stop-color="#90A7C4"/>
</linearGradient>
<linearGradient id="paint4_linear_66_382" x1="20.4987" y1="0" x2="20.4987" y2="33" gradientUnits="userSpaceOnUse">
<stop stop-color="#D4D0AF"/>
<stop offset="1" stop-color="#90A7C4"/>
</linearGradient>
</defs>
</svg>
