<svg width="41" height="42" viewBox="0 0 41 42" fill="none" xmlns="http://www.w3.org/2000/svg">
<g filter="url(#filter0_dd_66_381)">
<path d="M33.4644 9.42871H25.2144V11.7859H33.4644V9.42871Z" fill="url(#paint0_linear_66_381)"/>
<path d="M37.0001 16.5001H25.2144V18.8573H37.0001V16.5001Z" fill="url(#paint1_linear_66_381)"/>
<path d="M33.4644 23.5715H25.2144V25.9287H33.4644V23.5715Z" fill="url(#paint2_linear_66_381)"/>
<path d="M13.4286 21.4311V5.89294H11.0715V21.4311C10.2851 21.7091 9.62239 22.2562 9.20037 22.9756C8.77835 23.695 8.62424 24.5405 8.76528 25.3625C8.90632 26.1846 9.33343 26.9303 9.97112 27.4679C10.6088 28.0055 11.416 28.3003 12.2501 28.3003C13.0841 28.3003 13.8913 28.0055 14.529 27.4679C15.1667 26.9303 15.5938 26.1846 15.7349 25.3625C15.8759 24.5405 15.7218 23.695 15.2998 22.9756C14.8778 22.2562 14.215 21.7091 13.4286 21.4311Z" fill="url(#paint3_linear_66_381)"/>
<path d="M37 2.35728H16.9341C16.1947 1.36784 15.1622 0.636724 13.9834 0.267907C12.8045 -0.100909 11.5394 -0.0886438 10.3679 0.302959C9.19647 0.694561 8.1783 1.44556 7.45824 2.44915C6.73817 3.45274 6.35288 4.65782 6.35715 5.893V18.9879C5.22021 20.1482 4.45117 21.6185 4.14644 23.2141C3.84172 24.8098 4.01488 26.46 4.64421 27.9576C5.27353 29.4553 6.33102 30.7339 7.68406 31.633C9.03711 32.532 10.6255 33.0117 12.25 33.0117C13.8745 33.0117 15.4629 32.532 16.8159 31.633C18.169 30.7339 19.2265 29.4553 19.8558 27.9576C20.4851 26.46 20.6583 24.8098 20.3536 23.2141C20.0488 21.6185 19.2798 20.1482 18.1429 18.9879V5.893C18.1428 5.49714 18.1029 5.10229 18.0237 4.71443H37V2.35728ZM12.25 30.643C11.057 30.6446 9.89166 30.2836 8.90851 29.6078C7.92535 28.932 7.1708 27.9734 6.7449 26.859C6.31899 25.7446 6.24184 24.527 6.52367 23.3678C6.80551 22.2085 7.43301 21.1623 8.323 20.3679L8.71429 20.0163V5.893C8.71429 4.95527 9.0868 4.05594 9.74988 3.39287C10.413 2.72979 11.3123 2.35728 12.25 2.35728C13.1877 2.35728 14.0871 2.72979 14.7501 3.39287C15.4132 4.05594 15.7857 4.95527 15.7857 5.893V20.0163L16.177 20.3679C17.067 21.1623 17.6945 22.2085 17.9763 23.3678C18.2582 24.527 18.181 25.7446 17.7551 26.859C17.3292 27.9734 16.5747 28.932 15.5915 29.6078C14.6083 30.2836 13.443 30.6446 12.25 30.643Z" fill="url(#paint4_linear_66_381)"/>
</g>
<defs>
<filter id="filter0_dd_66_381" x="0" y="0" width="41" height="41.0117" filterUnits="userSpaceOnUse" color-interpolation-filters="sRGB">
<feFlood flood-opacity="0" result="BackgroundImageFix"/>
<feColorMatrix in="SourceAlpha" type="matrix" values="0 0 0 0 0 0 0 0 0 0 0 0 0 0 0 0 0 0 127 0" result="hardAlpha"/>
<feOffset dy="4"/>
<feGaussianBlur stdDeviation="2"/>
<feComposite in2="hardAlpha" operator="out"/>
<feColorMatrix type="matrix" values="0 0 0 0 0 0 0 0 0 0 0 0 0 0 0 0 0 0 0.25 0"/>
<feBlend mode="normal" in2="BackgroundImageFix" result="effect1_dropShadow_66_381"/>
<feColorMatrix in="SourceAlpha" type="matrix" values="0 0 0 0 0 0 0 0 0 0 0 0 0 0 0 0 0 0 127 0" result="hardAlpha"/>
<feOffset dy="4"/>
<feGaussianBlur stdDeviation="2"/>
<feComposite in2="hardAlpha" operator="out"/>
<feColorMatrix type="matrix" values="0 0 0 0 0 0 0 0 0 0 0 0 0 0 0 0 0 0 0.25 0"/>
<feBlend mode="normal" in2="effect1_dropShadow_66_381" result="effect2_dropShadow_66_381"/>
<feBlend mode="normal" in="SourceGraphic" in2="effect2_dropShadow_66_381" result="shape"/>
</filter>
<linearGradient id="paint0_linear_66_381" x1="29.3394" y1="9.42871" x2="29.3394" y2="11.7859" gradientUnits="userSpaceOnUse">
<stop stop-color="#D4D0AF"/>
<stop offset="1" stop-color="#90A7C4"/>
</linearGradient>
<linearGradient id="paint1_linear_66_381" x1="31.1072" y1="16.5001" x2="31.1072" y2="18.8573" gradientUnits="userSpaceOnUse">
<stop stop-color="#D4D0AF"/>
<stop offset="1" stop-color="#90A7C4"/>
</linearGradient>
<linearGradient id="paint2_linear_66_381" x1="29.3394" y1="23.5715" x2="29.3394" y2="25.9287" gradientUnits="userSpaceOnUse">
<stop stop-color="#D4D0AF"/>
<stop offset="1" stop-color="#90A7C4"/>
</linearGradient>
<linearGradient id="paint3_linear_66_381" x1="12.2501" y1="5.89294" x2="12.2501" y2="28.3003" gradientUnits="userSpaceOnUse">
<stop stop-color="#D4D0AF"/>
<stop offset="1" stop-color="#90A7C4"/>
</linearGradient>
<linearGradient id="paint4_linear_66_381" x1="20.5" y1="0" x2="20.5" y2="33.0117" gradientUnits="userSpaceOnUse">
<stop stop-color="#D4D0AF"/>
<stop offset="1" stop-color="#90A7C4"/>
</linearGradient>
</defs>
</svg>
