<svg width="41" height="30" viewBox="0 0 41 30" fill="none" xmlns="http://www.w3.org/2000/svg">
<g filter="url(#filter0_dd_66_357)">
<path d="M20.1333 0C12.8 0 6.53733 4.56133 4 11C6.53733 17.4387 12.8 22 20.1333 22C27.4667 22 33.7293 17.4387 36.2667 11C33.7293 4.56133 27.4667 0 20.1333 0ZM20.1333 18.3333C16.0853 18.3333 12.8 15.048 12.8 11C12.8 6.952 16.0853 3.66667 20.1333 3.66667C24.1813 3.66667 27.4667 6.952 27.4667 11C27.4667 15.048 24.1813 18.3333 20.1333 18.3333ZM20.1333 6.6C17.6987 6.6 15.7333 8.56533 15.7333 11C15.7333 13.4347 17.6987 15.4 20.1333 15.4C22.568 15.4 24.5333 13.4347 24.5333 11C24.5333 8.56533 22.568 6.6 20.1333 6.6Z" fill="url(#paint0_linear_66_357)"/>
</g>
<defs>
<filter id="filter0_dd_66_357" x="0" y="0" width="40.2666" height="30" filterUnits="userSpaceOnUse" color-interpolation-filters="sRGB">
<feFlood flood-opacity="0" result="BackgroundImageFix"/>
<feColorMatrix in="SourceAlpha" type="matrix" values="0 0 0 0 0 0 0 0 0 0 0 0 0 0 0 0 0 0 127 0" result="hardAlpha"/>
<feOffset dy="4"/>
<feGaussianBlur stdDeviation="2"/>
<feComposite in2="hardAlpha" operator="out"/>
<feColorMatrix type="matrix" values="0 0 0 0 0 0 0 0 0 0 0 0 0 0 0 0 0 0 0.25 0"/>
<feBlend mode="normal" in2="BackgroundImageFix" result="effect1_dropShadow_66_357"/>
<feColorMatrix in="SourceAlpha" type="matrix" values="0 0 0 0 0 0 0 0 0 0 0 0 0 0 0 0 0 0 127 0" result="hardAlpha"/>
<feOffset dy="4"/>
<feGaussianBlur stdDeviation="2"/>
<feComposite in2="hardAlpha" operator="out"/>
<feColorMatrix type="matrix" values="0 0 0 0 0 0 0 0 0 0 0 0 0 0 0 0 0 0 0.25 0"/>
<feBlend mode="normal" in2="effect1_dropShadow_66_357" result="effect2_dropShadow_66_357"/>
<feBlend mode="normal" in="SourceGraphic" in2="effect2_dropShadow_66_357" result="shape"/>
</filter>
<linearGradient id="paint0_linear_66_357" x1="20.1333" y1="0" x2="20.1333" y2="22" gradientUnits="userSpaceOnUse">
<stop stop-color="#D4D0AF"/>
<stop offset="1" stop-color="#90A7C4"/>
</linearGradient>
</defs>
</svg>
